<svg width="671" height="671" viewBox="0 0 671 671" fill="none" xmlns="http://www.w3.org/2000/svg">
<mask id="mask0_201_13" style="mask-type:alpha" maskUnits="userSpaceOnUse" x="0" y="43" width="663" height="591">
<path fill-rule="evenodd" clip-rule="evenodd" d="M662.636 43H0V634H662.636L662.636 488.936H3.58194V209.555H283.958L190.9 48.3728L482.483 48.3728L389.425 209.555H662.636L662.636 43Z" fill="#D9D9D9"/>
</mask>
<g mask="url(#mask0_201_13)">
<circle cx="336.691" cy="342.082" r="252.1" stroke="#171717" stroke-width="8"/>
</g>
<mask id="path-3-outside-1_201_13" maskUnits="userSpaceOnUse" x="10.6128" y="227.557" width="658" height="244" fill="black">
<rect fill="white" x="10.6128" y="227.557" width="658" height="244"/>
<path d="M17.6128 320.591V235.877H31.0518L64.4093 287.833H57.5698L90.8073 235.877H104.366V320.591H85.5276V267.675L88.8874 268.515L67.169 302.352H54.69L33.0916 268.515L36.3314 267.675V320.591H17.6128Z"/>
<path d="M154.69 321.911C147.731 321.911 141.571 320.431 136.212 317.471C130.932 314.511 126.772 310.432 123.733 305.232C120.773 299.952 119.293 293.953 119.293 287.233V235.877H138.251V288.313C138.251 291.673 138.971 294.593 140.411 297.073C141.851 299.552 143.811 301.472 146.291 302.832C148.851 304.112 151.65 304.752 154.69 304.752C157.89 304.752 160.69 304.112 163.09 302.832C165.489 301.472 167.369 299.592 168.729 297.193C170.169 294.713 170.889 291.793 170.889 288.433V235.877H189.848V287.353C189.848 294.073 188.368 300.032 185.408 305.232C182.448 310.432 178.328 314.511 173.049 317.471C167.769 320.431 161.65 321.911 154.69 321.911Z"/>
<path d="M229.365 321.911C222.405 321.911 216.406 320.791 211.366 318.551C206.407 316.231 201.847 312.751 197.687 308.112L209.926 295.993C212.646 299.112 215.646 301.552 218.926 303.312C222.285 304.992 226.165 305.832 230.565 305.832C234.564 305.832 237.644 305.112 239.804 303.672C242.044 302.232 243.164 300.232 243.164 297.673C243.164 295.353 242.444 293.473 241.004 292.033C239.564 290.593 237.644 289.353 235.244 288.313C232.925 287.273 230.325 286.273 227.445 285.313C224.645 284.354 221.845 283.274 219.046 282.074C216.246 280.794 213.646 279.234 211.246 277.394C208.926 275.474 207.047 273.114 205.607 270.315C204.167 267.435 203.447 263.835 203.447 259.515C203.447 254.316 204.687 249.836 207.167 246.076C209.726 242.317 213.246 239.477 217.726 237.557C222.205 235.557 227.365 234.557 233.205 234.557C239.124 234.557 244.524 235.597 249.403 237.677C254.363 239.757 258.443 242.597 261.642 246.196L249.403 258.316C246.844 255.676 244.244 253.716 241.604 252.436C239.044 251.156 236.124 250.516 232.845 250.516C229.565 250.516 226.965 251.156 225.045 252.436C223.125 253.636 222.165 255.396 222.165 257.716C222.165 259.875 222.885 261.635 224.325 262.995C225.765 264.275 227.645 265.395 229.965 266.355C232.365 267.315 234.964 268.275 237.764 269.235C240.644 270.195 243.484 271.315 246.284 272.594C249.083 273.874 251.643 275.514 253.963 277.514C256.363 279.434 258.283 281.914 259.723 284.954C261.162 287.913 261.882 291.593 261.882 295.993C261.882 304.072 259.003 310.432 253.243 315.071C247.484 319.631 239.524 321.911 229.365 321.911Z"/>
<path d="M273.882 320.591V235.877H292.721V320.591H273.882Z"/>
<path d="M349.233 321.911C342.913 321.911 337.034 320.831 331.594 318.671C326.235 316.431 321.515 313.311 317.435 309.312C313.436 305.312 310.316 300.672 308.076 295.393C305.836 290.033 304.716 284.274 304.716 278.114C304.716 271.955 305.836 266.235 308.076 260.955C310.316 255.596 313.436 250.956 317.435 247.036C321.435 243.117 326.115 240.077 331.474 237.917C336.914 235.677 342.793 234.557 349.113 234.557C355.832 234.557 361.792 235.637 366.992 237.797C372.271 239.957 376.871 242.917 380.791 246.676L368.192 259.395C365.952 256.996 363.232 255.116 360.032 253.756C356.912 252.396 353.273 251.716 349.113 251.716C345.433 251.716 342.034 252.356 338.914 253.636C335.874 254.836 333.234 256.596 330.994 258.915C328.835 261.235 327.115 264.035 325.835 267.315C324.635 270.595 324.035 274.194 324.035 278.114C324.035 282.114 324.635 285.753 325.835 289.033C327.115 292.313 328.835 295.113 330.994 297.433C333.234 299.752 335.874 301.552 338.914 302.832C342.034 304.112 345.433 304.752 349.113 304.752C353.433 304.752 357.192 304.072 360.392 302.712C363.592 301.352 366.352 299.472 368.671 297.073L381.391 309.792C377.311 313.551 372.631 316.511 367.352 318.671C362.152 320.831 356.112 321.911 349.233 321.911Z"/>
<path d="M391.764 320.591V235.877H410.603V320.591H391.764Z"/>
<path d="M420.558 320.591L454.156 235.877H471.194L504.432 320.591H484.513L459.075 250.276H465.915L440.117 320.591H420.558ZM439.637 305.232V289.873H485.833V305.232H439.637Z"/>
<path d="M513.396 320.591V235.877H526.595L532.234 252.796V320.591H513.396ZM571.831 320.591L521.915 256.636L526.595 235.877L576.511 299.832L571.831 320.591ZM571.831 320.591L566.792 303.672V235.877H585.63V320.591H571.831Z"/>
<path d="M625.78 321.911C618.821 321.911 612.821 320.791 607.781 318.551C602.822 316.231 598.262 312.751 594.103 308.112L606.342 295.993C609.061 299.112 612.061 301.552 615.341 303.312C618.701 304.992 622.58 305.832 626.98 305.832C630.98 305.832 634.06 305.112 636.219 303.672C638.459 302.232 639.579 300.232 639.579 297.673C639.579 295.353 638.859 293.473 637.419 292.033C635.979 290.593 634.06 289.353 631.66 288.313C629.34 287.273 626.74 286.273 623.86 285.313C621.06 284.354 618.261 283.274 615.461 282.074C612.661 280.794 610.061 279.234 607.661 277.394C605.342 275.474 603.462 273.114 602.022 270.315C600.582 267.435 599.862 263.835 599.862 259.515C599.862 254.316 601.102 249.836 603.582 246.076C606.142 242.317 609.661 239.477 614.141 237.557C618.621 235.557 623.78 234.557 629.62 234.557C635.539 234.557 640.939 235.597 645.819 237.677C650.778 239.757 654.858 242.597 658.058 246.196L645.819 258.316C643.259 255.676 640.659 253.716 638.019 252.436C635.459 251.156 632.54 250.516 629.26 250.516C625.98 250.516 623.38 251.156 621.46 252.436C619.541 253.636 618.581 255.396 618.581 257.716C618.581 259.875 619.301 261.635 620.741 262.995C622.18 264.275 624.06 265.395 626.38 266.355C628.78 267.315 631.38 268.275 634.18 269.235C637.059 270.195 639.899 271.315 642.699 272.594C645.499 273.874 648.058 275.514 650.378 277.514C652.778 279.434 654.698 281.914 656.138 284.954C657.578 287.913 658.298 291.593 658.298 295.993C658.298 304.072 655.418 310.432 649.658 315.071C643.899 319.631 635.939 321.911 625.78 321.911Z"/>
<path d="M101.656 463.864L74.4182 379.15H93.1368L113.055 444.305H105.736L125.174 379.15H139.933L159.372 444.305H152.172L171.971 379.15H190.569L163.331 463.864H148.573L129.014 398.708H135.974L116.415 463.864H101.656Z"/>
<path d="M185.029 463.864L218.627 379.15H235.665L268.903 463.864H248.984L223.546 393.549H230.386L204.588 463.864H185.029ZM204.108 448.505V433.146H250.304V448.505H204.108Z"/>
<path d="M277.867 463.864V379.15H291.065L296.705 396.069V463.864H277.867ZM336.302 463.864L286.386 399.908L291.065 379.15L340.982 443.105L336.302 463.864ZM336.302 463.864L331.262 446.945V379.15H350.101V463.864H336.302Z"/>
<path d="M387.212 463.864V380.35H406.051V463.864H387.212ZM360.694 395.589V379.15H432.569V395.589H360.694Z"/>
<path d="M443.088 463.864V379.15H461.927V463.864H443.088ZM457.487 463.864V447.545H503.924V463.864H457.487ZM457.487 428.466V412.747H499.724V428.466H457.487ZM457.487 395.349V379.15H503.324V395.349H457.487Z"/>
<path d="M529.63 463.864V447.305H550.628C555.748 447.305 560.228 446.305 564.067 444.305C567.907 442.225 570.867 439.225 572.947 435.306C575.026 431.386 576.066 426.746 576.066 421.387C576.066 416.027 574.987 411.428 572.827 407.588C570.747 403.748 567.787 400.788 563.947 398.708C560.188 396.629 555.748 395.589 550.628 395.589H529.03V379.15H550.868C557.268 379.15 563.147 380.19 568.507 382.27C573.947 384.27 578.666 387.189 582.666 391.029C586.746 394.789 589.865 399.268 592.025 404.468C594.265 409.588 595.385 415.267 595.385 421.507C595.385 427.666 594.265 433.346 592.025 438.545C589.865 443.745 586.786 448.225 582.786 451.984C578.786 455.744 574.067 458.664 568.627 460.744C563.267 462.824 557.428 463.864 551.108 463.864H529.63ZM516.911 463.864V379.15H535.75V463.864H516.911Z"/>
</mask>
<path d="M17.6128 320.591V235.877H31.0518L64.4093 287.833H57.5698L90.8073 235.877H104.366V320.591H85.5276V267.675L88.8874 268.515L67.169 302.352H54.69L33.0916 268.515L36.3314 267.675V320.591H17.6128Z" fill="#171717"/>
<path d="M154.69 321.911C147.731 321.911 141.571 320.431 136.212 317.471C130.932 314.511 126.772 310.432 123.733 305.232C120.773 299.952 119.293 293.953 119.293 287.233V235.877H138.251V288.313C138.251 291.673 138.971 294.593 140.411 297.073C141.851 299.552 143.811 301.472 146.291 302.832C148.851 304.112 151.65 304.752 154.69 304.752C157.89 304.752 160.69 304.112 163.09 302.832C165.489 301.472 167.369 299.592 168.729 297.193C170.169 294.713 170.889 291.793 170.889 288.433V235.877H189.848V287.353C189.848 294.073 188.368 300.032 185.408 305.232C182.448 310.432 178.328 314.511 173.049 317.471C167.769 320.431 161.65 321.911 154.69 321.911Z" fill="#171717"/>
<path d="M229.365 321.911C222.405 321.911 216.406 320.791 211.366 318.551C206.407 316.231 201.847 312.751 197.687 308.112L209.926 295.993C212.646 299.112 215.646 301.552 218.926 303.312C222.285 304.992 226.165 305.832 230.565 305.832C234.564 305.832 237.644 305.112 239.804 303.672C242.044 302.232 243.164 300.232 243.164 297.673C243.164 295.353 242.444 293.473 241.004 292.033C239.564 290.593 237.644 289.353 235.244 288.313C232.925 287.273 230.325 286.273 227.445 285.313C224.645 284.354 221.845 283.274 219.046 282.074C216.246 280.794 213.646 279.234 211.246 277.394C208.926 275.474 207.047 273.114 205.607 270.315C204.167 267.435 203.447 263.835 203.447 259.515C203.447 254.316 204.687 249.836 207.167 246.076C209.726 242.317 213.246 239.477 217.726 237.557C222.205 235.557 227.365 234.557 233.205 234.557C239.124 234.557 244.524 235.597 249.403 237.677C254.363 239.757 258.443 242.597 261.642 246.196L249.403 258.316C246.844 255.676 244.244 253.716 241.604 252.436C239.044 251.156 236.124 250.516 232.845 250.516C229.565 250.516 226.965 251.156 225.045 252.436C223.125 253.636 222.165 255.396 222.165 257.716C222.165 259.875 222.885 261.635 224.325 262.995C225.765 264.275 227.645 265.395 229.965 266.355C232.365 267.315 234.964 268.275 237.764 269.235C240.644 270.195 243.484 271.315 246.284 272.594C249.083 273.874 251.643 275.514 253.963 277.514C256.363 279.434 258.283 281.914 259.723 284.954C261.162 287.913 261.882 291.593 261.882 295.993C261.882 304.072 259.003 310.432 253.243 315.071C247.484 319.631 239.524 321.911 229.365 321.911Z" fill="#171717"/>
<path d="M273.882 320.591V235.877H292.721V320.591H273.882Z" fill="#171717"/>
<path d="M349.233 321.911C342.913 321.911 337.034 320.831 331.594 318.671C326.235 316.431 321.515 313.311 317.435 309.312C313.436 305.312 310.316 300.672 308.076 295.393C305.836 290.033 304.716 284.274 304.716 278.114C304.716 271.955 305.836 266.235 308.076 260.955C310.316 255.596 313.436 250.956 317.435 247.036C321.435 243.117 326.115 240.077 331.474 237.917C336.914 235.677 342.793 234.557 349.113 234.557C355.832 234.557 361.792 235.637 366.992 237.797C372.271 239.957 376.871 242.917 380.791 246.676L368.192 259.395C365.952 256.996 363.232 255.116 360.032 253.756C356.912 252.396 353.273 251.716 349.113 251.716C345.433 251.716 342.034 252.356 338.914 253.636C335.874 254.836 333.234 256.596 330.994 258.915C328.835 261.235 327.115 264.035 325.835 267.315C324.635 270.595 324.035 274.194 324.035 278.114C324.035 282.114 324.635 285.753 325.835 289.033C327.115 292.313 328.835 295.113 330.994 297.433C333.234 299.752 335.874 301.552 338.914 302.832C342.034 304.112 345.433 304.752 349.113 304.752C353.433 304.752 357.192 304.072 360.392 302.712C363.592 301.352 366.352 299.472 368.671 297.073L381.391 309.792C377.311 313.551 372.631 316.511 367.352 318.671C362.152 320.831 356.112 321.911 349.233 321.911Z" fill="#171717"/>
<path d="M391.764 320.591V235.877H410.603V320.591H391.764Z" fill="#171717"/>
<path d="M420.558 320.591L454.156 235.877H471.194L504.432 320.591H484.513L459.075 250.276H465.915L440.117 320.591H420.558ZM439.637 305.232V289.873H485.833V305.232H439.637Z" fill="#171717"/>
<path d="M513.396 320.591V235.877H526.595L532.234 252.796V320.591H513.396ZM571.831 320.591L521.915 256.636L526.595 235.877L576.511 299.832L571.831 320.591ZM571.831 320.591L566.792 303.672V235.877H585.63V320.591H571.831Z" fill="#171717"/>
<path d="M625.78 321.911C618.821 321.911 612.821 320.791 607.781 318.551C602.822 316.231 598.262 312.751 594.103 308.112L606.342 295.993C609.061 299.112 612.061 301.552 615.341 303.312C618.701 304.992 622.58 305.832 626.98 305.832C630.98 305.832 634.06 305.112 636.219 303.672C638.459 302.232 639.579 300.232 639.579 297.673C639.579 295.353 638.859 293.473 637.419 292.033C635.979 290.593 634.06 289.353 631.66 288.313C629.34 287.273 626.74 286.273 623.86 285.313C621.06 284.354 618.261 283.274 615.461 282.074C612.661 280.794 610.061 279.234 607.661 277.394C605.342 275.474 603.462 273.114 602.022 270.315C600.582 267.435 599.862 263.835 599.862 259.515C599.862 254.316 601.102 249.836 603.582 246.076C606.142 242.317 609.661 239.477 614.141 237.557C618.621 235.557 623.78 234.557 629.62 234.557C635.539 234.557 640.939 235.597 645.819 237.677C650.778 239.757 654.858 242.597 658.058 246.196L645.819 258.316C643.259 255.676 640.659 253.716 638.019 252.436C635.459 251.156 632.54 250.516 629.26 250.516C625.98 250.516 623.38 251.156 621.46 252.436C619.541 253.636 618.581 255.396 618.581 257.716C618.581 259.875 619.301 261.635 620.741 262.995C622.18 264.275 624.06 265.395 626.38 266.355C628.78 267.315 631.38 268.275 634.18 269.235C637.059 270.195 639.899 271.315 642.699 272.594C645.499 273.874 648.058 275.514 650.378 277.514C652.778 279.434 654.698 281.914 656.138 284.954C657.578 287.913 658.298 291.593 658.298 295.993C658.298 304.072 655.418 310.432 649.658 315.071C643.899 319.631 635.939 321.911 625.78 321.911Z" fill="#171717"/>
<path d="M101.656 463.864L74.4182 379.15H93.1368L113.055 444.305H105.736L125.174 379.15H139.933L159.372 444.305H152.172L171.971 379.15H190.569L163.331 463.864H148.573L129.014 398.708H135.974L116.415 463.864H101.656Z" fill="#171717"/>
<path d="M185.029 463.864L218.627 379.15H235.665L268.903 463.864H248.984L223.546 393.549H230.386L204.588 463.864H185.029ZM204.108 448.505V433.146H250.304V448.505H204.108Z" fill="#171717"/>
<path d="M277.867 463.864V379.15H291.065L296.705 396.069V463.864H277.867ZM336.302 463.864L286.386 399.908L291.065 379.15L340.982 443.105L336.302 463.864ZM336.302 463.864L331.262 446.945V379.15H350.101V463.864H336.302Z" fill="#171717"/>
<path d="M387.212 463.864V380.35H406.051V463.864H387.212ZM360.694 395.589V379.15H432.569V395.589H360.694Z" fill="#171717"/>
<path d="M443.088 463.864V379.15H461.927V463.864H443.088ZM457.487 463.864V447.545H503.924V463.864H457.487ZM457.487 428.466V412.747H499.724V428.466H457.487ZM457.487 395.349V379.15H503.324V395.349H457.487Z" fill="#171717"/>
<path d="M529.63 463.864V447.305H550.628C555.748 447.305 560.228 446.305 564.067 444.305C567.907 442.225 570.867 439.225 572.947 435.306C575.026 431.386 576.066 426.746 576.066 421.387C576.066 416.027 574.987 411.428 572.827 407.588C570.747 403.748 567.787 400.788 563.947 398.708C560.188 396.629 555.748 395.589 550.628 395.589H529.03V379.15H550.868C557.268 379.15 563.147 380.19 568.507 382.27C573.947 384.27 578.666 387.189 582.666 391.029C586.746 394.789 589.865 399.268 592.025 404.468C594.265 409.588 595.385 415.267 595.385 421.507C595.385 427.666 594.265 433.346 592.025 438.545C589.865 443.745 586.786 448.225 582.786 451.984C578.786 455.744 574.067 458.664 568.627 460.744C563.267 462.824 557.428 463.864 551.108 463.864H529.63ZM516.911 463.864V379.15H535.75V463.864H516.911Z" fill="#171717"/>
<path d="M17.6128 320.591H10.6128V327.591H17.6128V320.591ZM17.6128 235.877V228.877H10.6128V235.877H17.6128ZM31.0518 235.877L36.9422 232.095L34.8761 228.877H31.0518V235.877ZM64.4093 287.833V294.833H77.222L70.2997 284.051L64.4093 287.833ZM57.5698 287.833L51.6731 284.061L44.7819 294.833H57.5698V287.833ZM90.8073 235.877V228.877H86.9755L84.9106 232.105L90.8073 235.877ZM104.366 235.877H111.366V228.877H104.366V235.877ZM104.366 320.591V327.591H111.366V320.591H104.366ZM85.5276 320.591H78.5276V327.591H85.5276V320.591ZM85.5276 267.675L87.2254 260.884L78.5276 258.709V267.675H85.5276ZM88.8874 268.515L94.7784 272.296L100.046 264.089L90.5851 261.724L88.8874 268.515ZM67.169 302.352V309.352H70.994L73.06 306.133L67.169 302.352ZM54.69 302.352L48.7895 306.118L50.8536 309.352H54.69V302.352ZM33.0916 268.515L31.3349 261.739L22.0059 264.157L27.1912 272.281L33.0916 268.515ZM36.3314 267.675H43.3314V258.629L34.5746 260.899L36.3314 267.675ZM36.3314 320.591V327.591H43.3314V320.591H36.3314ZM136.212 317.471L132.789 323.577L132.808 323.588L132.828 323.599L136.212 317.471ZM123.733 305.232L117.627 308.655L117.658 308.71L117.689 308.765L123.733 305.232ZM119.293 235.877V228.877H112.293V235.877H119.293ZM138.251 235.877H145.251V228.877H138.251V235.877ZM146.291 302.832L142.925 308.97L143.042 309.034L143.16 309.093L146.291 302.832ZM163.09 302.832L166.384 309.009L166.463 308.966L166.541 308.922L163.09 302.832ZM168.729 297.193L162.676 293.678L162.657 293.709L162.639 293.742L168.729 297.193ZM170.889 235.877V228.877H163.889V235.877H170.889ZM189.848 235.877H196.848V228.877H189.848V235.877ZM185.408 305.232L179.324 301.769L185.408 305.232ZM173.049 317.471L169.626 311.365H169.626L173.049 317.471ZM211.366 318.551L208.4 324.892L208.462 324.92L208.523 324.948L211.366 318.551ZM197.687 308.112L192.762 303.138L188.029 307.825L192.475 312.785L197.687 308.112ZM209.926 295.993L215.203 291.393L210.301 285.77L205.001 291.019L209.926 295.993ZM218.926 303.312L215.616 309.48L215.705 309.528L215.795 309.573L218.926 303.312ZM239.804 303.672L236.019 297.784L235.97 297.815L235.921 297.848L239.804 303.672ZM241.004 292.033L236.054 296.983V296.983L241.004 292.033ZM235.244 288.313L232.381 294.701L232.421 294.719L232.461 294.736L235.244 288.313ZM227.445 285.313L225.175 291.935L225.203 291.945L225.231 291.954L227.445 285.313ZM219.046 282.074L216.135 288.44L216.211 288.475L216.288 288.508L219.046 282.074ZM211.246 277.394L206.783 282.787L206.884 282.87L206.987 282.949L211.246 277.394ZM205.607 270.315L199.346 273.445L199.363 273.481L199.382 273.516L205.607 270.315ZM207.167 246.076L201.38 242.137L201.351 242.179L201.323 242.222L207.167 246.076ZM217.726 237.557L220.483 243.991L220.531 243.97L220.579 243.949L217.726 237.557ZM249.403 237.677L246.659 244.117L246.677 244.125L246.696 244.132L249.403 237.677ZM261.642 246.196L266.568 251.171L271.281 246.503L266.874 241.546L261.642 246.196ZM249.403 258.316L244.378 263.189L249.302 268.267L254.329 263.29L249.403 258.316ZM241.604 252.436L238.473 258.697L238.512 258.716L238.55 258.735L241.604 252.436ZM225.045 252.436L228.755 258.372L228.842 258.317L228.928 258.26L225.045 252.436ZM224.325 262.995L219.519 268.084L219.596 268.157L219.675 268.227L224.325 262.995ZM229.965 266.355L227.288 272.823L227.327 272.839L227.365 272.854L229.965 266.355ZM237.764 269.235L235.494 275.856L235.522 275.866L235.551 275.875L237.764 269.235ZM246.284 272.594L249.194 266.228L246.284 272.594ZM253.963 277.514L249.392 282.816L249.49 282.9L249.59 282.98L253.963 277.514ZM259.723 284.954L253.396 287.95L253.412 287.983L253.428 288.016L259.723 284.954ZM253.243 315.071L257.588 320.56L257.611 320.541L257.634 320.523L253.243 315.071ZM273.882 320.591H266.882V327.591H273.882V320.591ZM273.882 235.877V228.877H266.882V235.877H273.882ZM292.721 235.877H299.721V228.877H292.721V235.877ZM292.721 320.591V327.591H299.721V320.591H292.721ZM331.594 318.671L328.895 325.13L328.953 325.154L329.011 325.177L331.594 318.671ZM317.435 309.312L312.486 314.261L312.51 314.286L312.535 314.31L317.435 309.312ZM308.076 295.393L301.617 298.092L301.625 298.109L301.632 298.127L308.076 295.393ZM308.076 260.955L314.52 263.689L314.528 263.672L314.535 263.654L308.076 260.955ZM317.435 247.036L322.335 252.036L317.435 247.036ZM331.474 237.917L334.091 244.41L334.115 244.4L334.14 244.39L331.474 237.917ZM366.992 237.797L364.306 244.262L364.324 244.269L364.341 244.276L366.992 237.797ZM380.791 246.676L385.764 251.603L390.77 246.549L385.636 241.625L380.791 246.676ZM368.192 259.395L363.074 264.172L368.041 269.494L373.165 264.322L368.192 259.395ZM360.032 253.756L357.235 260.173L357.265 260.186L357.294 260.198L360.032 253.756ZM338.914 253.636L341.484 260.147L341.527 260.13L341.571 260.112L338.914 253.636ZM330.994 258.915L325.959 254.053L325.914 254.099L325.871 254.146L330.994 258.915ZM325.835 267.315L319.314 264.77L319.287 264.84L319.261 264.91L325.835 267.315ZM325.835 289.033L319.261 291.438L319.287 291.508L319.314 291.578L325.835 289.033ZM330.994 297.433L325.871 302.203L325.914 302.249L325.959 302.295L330.994 297.433ZM338.914 302.832L336.197 309.284L336.227 309.296L336.257 309.308L338.914 302.832ZM368.671 297.073L373.621 292.123L368.587 287.089L363.639 292.207L368.671 297.073ZM381.391 309.792L386.134 314.939L391.496 309.998L386.34 304.842L381.391 309.792ZM367.352 318.671L364.701 312.192L364.684 312.199L364.666 312.206L367.352 318.671ZM391.764 320.591H384.764V327.591H391.764V320.591ZM391.764 235.877V228.877H384.764V235.877H391.764ZM410.603 235.877H417.603V228.877H410.603V235.877ZM410.603 320.591V327.591H417.603V320.591H410.603ZM420.558 320.591L414.051 318.01L410.252 327.591H420.558V320.591ZM454.156 235.877V228.877H449.401L447.649 233.297L454.156 235.877ZM471.194 235.877L477.711 233.321L475.967 228.877H471.194V235.877ZM504.432 320.591V327.591H514.698L510.948 318.034L504.432 320.591ZM484.513 320.591L477.931 322.972L479.602 327.591H484.513V320.591ZM459.075 250.276V243.276H449.099L452.493 252.658L459.075 250.276ZM465.915 250.276L472.486 252.687L475.939 243.276H465.915V250.276ZM440.117 320.591V327.591H445.005L446.688 323.002L440.117 320.591ZM439.637 305.232H432.637V312.232H439.637V305.232ZM439.637 289.873V282.873H432.637V289.873H439.637ZM485.833 289.873H492.833V282.873H485.833V289.873ZM485.833 305.232V312.232H492.833V305.232H485.833ZM513.396 320.591H506.396V327.591H513.396V320.591ZM513.396 235.877V228.877H506.396V235.877H513.396ZM526.595 235.877L532.113 231.57L530.011 228.877H526.595V235.877ZM532.234 252.796H539.234V251.66L538.875 250.582L532.234 252.796ZM532.234 320.591V327.591H539.234V320.591H532.234ZM571.831 320.591L566.313 324.898L568.415 327.591H571.831V320.591ZM521.915 256.636L515.086 255.096L514.357 258.33L516.397 260.943L521.915 256.636ZM576.511 299.832L583.339 301.372L584.068 298.138L582.029 295.525L576.511 299.832ZM566.792 303.672H559.792V304.692L560.083 305.67L566.792 303.672ZM566.792 235.877V228.877H559.792V235.877H566.792ZM585.63 235.877H592.63V228.877H585.63V235.877ZM585.63 320.591V327.591H592.63V320.591H585.63ZM607.781 318.551L604.816 324.892L604.877 324.92L604.939 324.948L607.781 318.551ZM594.103 308.112L589.177 303.138L584.444 307.825L588.891 312.785L594.103 308.112ZM606.342 295.993L611.618 291.393L606.716 285.77L601.416 291.019L606.342 295.993ZM615.341 303.312L612.031 309.48L612.12 309.528L612.21 309.573L615.341 303.312ZM636.219 303.672L632.434 297.784L632.385 297.815L632.336 297.848L636.219 303.672ZM637.419 292.033L632.469 296.983L632.47 296.983L637.419 292.033ZM631.66 288.313L628.796 294.701L628.836 294.719L628.876 294.736L631.66 288.313ZM623.86 285.313L621.59 291.935L621.618 291.945L621.647 291.954L623.86 285.313ZM615.461 282.074L612.551 288.44L612.627 288.475L612.703 288.508L615.461 282.074ZM607.661 277.394L603.199 282.787L603.299 282.87L603.403 282.949L607.661 277.394ZM602.022 270.315L595.761 273.445L595.779 273.481L595.797 273.516L602.022 270.315ZM603.582 246.076L597.796 242.137L597.767 242.179L597.738 242.222L603.582 246.076ZM614.141 237.557L616.898 243.991L616.947 243.97L616.995 243.949L614.141 237.557ZM645.819 237.677L643.074 244.117L643.093 244.125L643.112 244.132L645.819 237.677ZM658.058 246.196L662.983 251.171L667.696 246.503L663.29 241.546L658.058 246.196ZM645.819 258.316L640.793 263.189L645.718 268.267L650.744 263.29L645.819 258.316ZM638.019 252.436L634.889 258.697L634.927 258.716L634.965 258.735L638.019 252.436ZM621.46 252.436L625.17 258.372L625.258 258.317L625.343 258.26L621.46 252.436ZM620.741 262.995L615.934 268.084L616.011 268.157L616.09 268.227L620.741 262.995ZM626.38 266.355L623.704 272.823L623.742 272.839L623.78 272.854L626.38 266.355ZM634.18 269.235L631.909 275.856L631.938 275.866L631.966 275.875L634.18 269.235ZM642.699 272.594L645.609 266.228L642.699 272.594ZM650.378 277.514L645.808 282.816L645.905 282.9L646.005 282.98L650.378 277.514ZM656.138 284.954L649.812 287.95L649.827 287.983L649.843 288.016L656.138 284.954ZM649.658 315.071L654.003 320.56L654.026 320.541L654.05 320.523L649.658 315.071ZM101.656 463.864L94.9921 466.006L96.5539 470.864H101.656V463.864ZM74.4182 379.15V372.15H64.8145L67.7542 381.293L74.4182 379.15ZM93.1368 379.15L99.8309 377.103L98.3166 372.15H93.1368V379.15ZM113.055 444.305V451.305H122.515L119.749 442.259L113.055 444.305ZM105.736 444.305L99.028 442.304L96.3425 451.305H105.736V444.305ZM125.174 379.15V372.15H119.958L118.466 377.149L125.174 379.15ZM139.933 379.15L146.641 377.149L145.15 372.15H139.933V379.15ZM159.372 444.305V451.305H168.765L166.08 442.304L159.372 444.305ZM152.172 444.305L145.475 442.27L142.729 451.305H152.172V444.305ZM171.971 379.15V372.15H166.782L165.273 377.115L171.971 379.15ZM190.569 379.15L197.233 381.293L200.173 372.15H190.569V379.15ZM163.331 463.864V470.864H168.434L169.995 466.006L163.331 463.864ZM148.573 463.864L141.868 465.876L143.365 470.864H148.573V463.864ZM129.014 398.708V391.708H119.604L122.31 400.721L129.014 398.708ZM135.974 398.708L142.678 400.721L145.383 391.708H135.974V398.708ZM116.415 463.864V470.864H121.622L123.119 465.876L116.415 463.864ZM185.029 463.864L178.522 461.283L174.723 470.864H185.029V463.864ZM218.627 379.15V372.15H213.872L212.12 376.569L218.627 379.15ZM235.665 379.15L242.182 376.593L240.438 372.15H235.665V379.15ZM268.903 463.864V470.864H279.169L275.419 461.307L268.903 463.864ZM248.984 463.864L242.402 466.245L244.073 470.864H248.984V463.864ZM223.546 393.549V386.549H213.57L216.964 395.93L223.546 393.549ZM230.386 393.549L236.957 395.96L240.41 386.549H230.386V393.549ZM204.588 463.864V470.864H209.476L211.159 466.275L204.588 463.864ZM204.108 448.505H197.108V455.505H204.108V448.505ZM204.108 433.146V426.146H197.108V433.146H204.108ZM250.304 433.146H257.304V426.146H250.304V433.146ZM250.304 448.505V455.505H257.304V448.505H250.304ZM277.867 463.864H270.867V470.864H277.867V463.864ZM277.867 379.15V372.15H270.867V379.15H277.867ZM291.065 379.15L296.584 374.843L294.482 372.15H291.065V379.15ZM296.705 396.069H303.705V394.933L303.346 393.855L296.705 396.069ZM296.705 463.864V470.864H303.705V463.864H296.705ZM336.302 463.864L330.784 468.17L332.886 470.864H336.302V463.864ZM286.386 399.908L279.557 398.369L278.828 401.602L280.868 404.215L286.386 399.908ZM340.982 443.105L347.81 444.645L348.539 441.411L346.5 438.798L340.982 443.105ZM331.262 446.945H324.262V447.965L324.554 448.943L331.262 446.945ZM331.262 379.15V372.15H324.262V379.15H331.262ZM350.101 379.15H357.101V372.15H350.101V379.15ZM350.101 463.864V470.864H357.101V463.864H350.101ZM387.212 463.864H380.212V470.864H387.212V463.864ZM387.212 380.35V373.35H380.212V380.35H387.212ZM406.051 380.35H413.051V373.35H406.051V380.35ZM406.051 463.864V470.864H413.051V463.864H406.051ZM360.694 395.589H353.694V402.589H360.694V395.589ZM360.694 379.15V372.15H353.694V379.15H360.694ZM432.569 379.15H439.569V372.15H432.569V379.15ZM432.569 395.589V402.589H439.569V395.589H432.569ZM443.088 463.864H436.088V470.864H443.088V463.864ZM443.088 379.15V372.15H436.088V379.15H443.088ZM461.927 379.15H468.927V372.15H461.927V379.15ZM461.927 463.864V470.864H468.927V463.864H461.927ZM457.487 463.864H450.487V470.864H457.487V463.864ZM457.487 447.545V440.545H450.487V447.545H457.487ZM503.924 447.545H510.924V440.545H503.924V447.545ZM503.924 463.864V470.864H510.924V463.864H503.924ZM457.487 428.466H450.487V435.466H457.487V428.466ZM457.487 412.747V405.747H450.487V412.747H457.487ZM499.724 412.747H506.724V405.747H499.724V412.747ZM499.724 428.466V435.466H506.724V428.466H499.724ZM457.487 395.349H450.487V402.349H457.487V395.349ZM457.487 379.15V372.15H450.487V379.15H457.487ZM503.324 379.15H510.324V372.15H503.324V379.15ZM503.324 395.349V402.349H510.324V395.349H503.324ZM529.63 463.864H522.63V470.864H529.63V463.864ZM529.63 447.305V440.305H522.63V447.305H529.63ZM564.067 444.305L567.301 450.513L567.351 450.487L567.401 450.46L564.067 444.305ZM572.827 407.588L566.672 410.922L566.698 410.971L566.726 411.02L572.827 407.588ZM563.947 398.708L560.559 404.834L560.586 404.849L560.613 404.864L563.947 398.708ZM529.03 395.589H522.03V402.589H529.03V395.589ZM529.03 379.15V372.15H522.03V379.15H529.03ZM568.507 382.27L565.975 388.796L566.033 388.818L566.091 388.84L568.507 382.27ZM582.666 391.029L577.818 396.079L577.87 396.128L577.922 396.177L582.666 391.029ZM592.025 404.468L585.561 407.153L585.586 407.214L585.612 407.274L592.025 404.468ZM592.025 438.545L585.596 435.776L585.578 435.818L585.561 435.86L592.025 438.545ZM568.627 460.744L566.127 454.205L566.111 454.212L566.095 454.218L568.627 460.744ZM516.911 463.864H509.911V470.864H516.911V463.864ZM516.911 379.15V372.15H509.911V379.15H516.911ZM535.75 379.15H542.75V372.15H535.75V379.15ZM535.75 463.864V470.864H542.75V463.864H535.75ZM24.6128 320.591V235.877H10.6128V320.591H24.6128ZM17.6128 242.877H31.0518V228.877H17.6128V242.877ZM25.1613 239.659L58.5188 291.615L70.2997 284.051L36.9422 232.095L25.1613 239.659ZM64.4093 280.833H57.5698V294.833H64.4093V280.833ZM63.4664 291.606L96.7039 239.649L84.9106 232.105L51.6731 284.061L63.4664 291.606ZM90.8073 242.877H104.366V228.877H90.8073V242.877ZM97.3662 235.877V320.591H111.366V235.877H97.3662ZM104.366 313.591H85.5276V327.591H104.366V313.591ZM92.5276 320.591V267.675H78.5276V320.591H92.5276ZM83.8299 274.466L87.1897 275.306L90.5851 261.724L87.2254 260.884L83.8299 274.466ZM82.9964 264.734L61.2781 298.571L73.06 306.133L94.7784 272.296L82.9964 264.734ZM67.169 295.352H54.69V309.352H67.169V295.352ZM60.5904 298.586L38.9921 264.749L27.1912 272.281L48.7895 306.118L60.5904 298.586ZM34.8484 275.291L38.0881 274.451L34.5746 260.899L31.3349 261.739L34.8484 275.291ZM29.3314 267.675V320.591H43.3314V267.675H29.3314ZM36.3314 313.591H17.6128V327.591H36.3314V313.591ZM154.69 314.911C148.75 314.911 143.784 313.657 139.596 311.343L132.828 323.599C139.358 327.205 146.711 328.911 154.69 328.911V314.911ZM139.635 311.365C135.436 309.011 132.183 305.818 129.776 301.699L117.689 308.765C121.361 315.046 126.428 320.011 132.789 323.577L139.635 311.365ZM129.839 301.809C127.528 297.687 126.293 292.889 126.293 287.233H112.293C112.293 295.017 114.018 302.218 117.627 308.655L129.839 301.809ZM126.293 287.233V235.877H112.293V287.233H126.293ZM119.293 242.877H138.251V228.877H119.293V242.877ZM131.251 235.877V288.313H145.251V235.877H131.251ZM131.251 288.313C131.251 292.694 132.199 296.869 134.358 300.588L146.465 293.558C145.744 292.316 145.251 290.652 145.251 288.313H131.251ZM134.358 300.588C136.429 304.154 139.311 306.988 142.925 308.97L149.657 296.694C148.311 295.957 147.274 294.951 146.465 293.558L134.358 300.588ZM143.16 309.093C146.752 310.889 150.633 311.752 154.69 311.752V297.752C152.668 297.752 150.949 297.335 149.421 296.571L143.16 309.093ZM154.69 311.752C158.836 311.752 162.805 310.917 166.384 309.009L159.795 296.656C158.575 297.307 156.944 297.752 154.69 297.752V311.752ZM166.541 308.922C170.043 306.938 172.835 304.146 174.819 300.644L162.639 293.742C161.904 295.039 160.936 296.007 159.638 296.742L166.541 308.922ZM174.783 300.708C176.942 296.989 177.889 292.814 177.889 288.433H163.889C163.889 290.772 163.396 292.436 162.676 293.678L174.783 300.708ZM177.889 288.433V235.877H163.889V288.433H177.889ZM170.889 242.877H189.848V228.877H170.889V242.877ZM182.848 235.877V287.353H196.848V235.877H182.848ZM182.848 287.353C182.848 293.011 181.612 297.75 179.324 301.769L191.491 308.695C195.123 302.315 196.848 295.135 196.848 287.353H182.848ZM179.324 301.769C177.002 305.849 173.808 309.02 169.626 311.365L176.472 323.577C182.849 320.002 187.894 315.015 191.491 308.695L179.324 301.769ZM169.626 311.365C165.54 313.656 160.633 314.911 154.69 314.911V328.911C162.667 328.911 169.999 327.206 176.472 323.577L169.626 311.365ZM229.365 314.911C223.137 314.911 218.152 313.907 214.209 312.154L208.523 324.948C214.66 327.675 221.674 328.911 229.365 328.911V314.911ZM214.332 312.21C210.336 310.341 206.517 307.474 202.899 303.439L192.475 312.785C197.177 318.029 202.478 322.121 208.4 324.892L214.332 312.21ZM202.613 313.086L214.852 300.967L205.001 291.019L192.762 303.138L202.613 313.086ZM204.65 300.593C207.863 304.279 211.513 307.278 215.616 309.48L222.235 297.144C219.779 295.826 217.429 293.946 215.203 291.393L204.65 300.593ZM215.795 309.573C220.28 311.816 225.264 312.832 230.565 312.832V298.832C227.066 298.832 224.291 298.168 222.056 297.051L215.795 309.573ZM230.565 312.832C235.253 312.832 239.911 312.014 243.687 309.496L235.921 297.848C235.378 298.21 233.876 298.832 230.565 298.832V312.832ZM243.589 309.56C247.736 306.895 250.164 302.728 250.164 297.673H236.164C236.164 297.8 236.15 297.841 236.156 297.818C236.158 297.807 236.164 297.786 236.175 297.758C236.186 297.73 236.2 297.701 236.216 297.672C236.251 297.61 236.278 297.584 236.266 297.596C236.252 297.611 236.182 297.679 236.019 297.784L243.589 309.56ZM250.164 297.673C250.164 293.777 248.893 290.022 245.954 287.083L236.054 296.983C236.079 297.008 236.085 297.018 236.081 297.013C236.078 297.008 236.08 297.009 236.087 297.026C236.098 297.055 236.164 297.24 236.164 297.673H250.164ZM245.954 287.083C243.741 284.871 241.016 283.185 238.028 281.89L232.461 294.736C234.272 295.521 235.387 296.315 236.054 296.983L245.954 287.083ZM238.108 281.926C235.54 280.775 232.718 279.693 229.659 278.673L225.231 291.954C227.931 292.854 230.309 293.772 232.381 294.701L238.108 281.926ZM229.715 278.692C227.085 277.79 224.448 276.773 221.803 275.64L216.288 288.508C219.243 289.774 222.206 290.917 225.175 291.935L229.715 278.692ZM221.956 275.707C219.626 274.642 217.48 273.353 215.505 271.839L206.987 282.949C209.812 285.115 212.866 286.945 216.135 288.44L221.956 275.707ZM215.709 272.001C214.152 270.713 212.859 269.11 211.832 267.113L199.382 273.516C201.235 277.119 203.701 280.236 206.783 282.787L215.709 272.001ZM211.868 267.184C211.051 265.55 210.447 263.103 210.447 259.515H196.447C196.447 264.568 197.283 269.32 199.346 273.445L211.868 267.184ZM210.447 259.515C210.447 255.469 211.396 252.378 213.01 249.931L201.323 242.222C197.978 247.295 196.447 253.163 196.447 259.515H210.447ZM212.953 250.016C214.707 247.439 217.139 245.425 220.483 243.991L214.968 231.123C209.354 233.529 204.745 237.194 201.38 242.137L212.953 250.016ZM220.579 243.949C224.007 242.419 228.164 241.557 233.205 241.557V227.557C226.566 227.557 220.404 228.696 214.872 231.165L220.579 243.949ZM233.205 241.557C238.29 241.557 242.742 242.447 246.659 244.117L252.148 231.238C246.305 228.747 239.958 227.557 233.205 227.557V241.557ZM246.696 244.132C250.803 245.855 253.984 248.117 256.411 250.847L266.874 241.546C262.901 237.076 257.922 233.659 252.11 231.222L246.696 244.132ZM256.717 241.222L244.478 253.341L254.329 263.29L266.568 251.171L256.717 241.222ZM254.429 253.443C251.438 250.359 248.193 247.851 244.658 246.137L238.55 258.735C240.295 259.581 242.249 260.993 244.378 263.189L254.429 253.443ZM244.734 246.175C241.07 244.343 237.052 243.516 232.845 243.516V257.516C235.197 257.516 237.019 257.97 238.473 258.697L244.734 246.175ZM232.845 243.516C228.741 243.516 224.622 244.305 221.162 246.612L228.928 258.26C229.308 258.007 230.389 257.516 232.845 257.516V243.516ZM221.335 246.5C217.308 249.017 215.165 253.055 215.165 257.716H229.165C229.165 257.619 229.175 257.616 229.159 257.684C229.142 257.757 229.104 257.873 229.031 258.008C228.957 258.143 228.873 258.25 228.802 258.322C228.735 258.392 228.706 258.403 228.755 258.372L221.335 246.5ZM215.165 257.716C215.165 261.608 216.544 265.275 219.519 268.084L229.132 257.906C229.11 257.886 229.117 257.888 229.136 257.916C229.155 257.944 229.173 257.976 229.184 258.005C229.195 258.033 229.192 258.034 229.185 257.996C229.178 257.956 229.165 257.866 229.165 257.716H215.165ZM219.675 268.227C221.846 270.157 224.453 271.65 227.288 272.823L232.641 259.887C230.837 259.14 229.685 258.393 228.976 257.763L219.675 268.227ZM227.365 272.854C229.888 273.863 232.599 274.864 235.494 275.856L240.035 262.613C237.33 261.686 234.841 260.766 232.565 259.856L227.365 272.854ZM235.551 275.875C238.19 276.755 240.797 277.783 243.373 278.961L249.194 266.228C246.17 264.846 243.098 263.634 239.978 262.594L235.551 275.875ZM243.373 278.961C245.575 279.967 247.576 281.25 249.392 282.816L258.534 272.212C255.711 269.779 252.591 267.781 249.194 266.228L243.373 278.961ZM249.59 282.98C251.084 284.175 252.368 285.779 253.396 287.95L266.049 281.957C264.197 278.048 261.642 274.693 258.336 272.048L249.59 282.98ZM253.428 288.016C254.275 289.756 254.882 292.313 254.882 295.993H268.882C268.882 290.873 268.05 286.07 266.017 281.891L253.428 288.016ZM254.882 295.993C254.882 302.177 252.795 306.443 248.852 309.62L257.634 320.523C265.21 314.42 268.882 305.967 268.882 295.993H254.882ZM248.898 309.583C244.773 312.849 238.543 314.911 229.365 314.911V328.911C240.505 328.911 250.194 326.413 257.588 320.56L248.898 309.583ZM280.882 320.591V235.877H266.882V320.591H280.882ZM273.882 242.877H292.721V228.877H273.882V242.877ZM285.721 235.877V320.591H299.721V235.877H285.721ZM292.721 313.591H273.882V327.591H292.721V313.591ZM349.233 314.911C343.727 314.911 338.731 313.973 334.178 312.165L329.011 325.177C335.336 327.688 342.1 328.911 349.233 328.911V314.911ZM334.293 312.212C329.74 310.309 325.77 307.68 322.336 304.313L312.535 314.31C317.26 318.942 322.73 322.553 328.895 325.13L334.293 312.212ZM322.385 304.362C319.03 301.007 316.414 297.123 314.52 292.659L301.632 298.127C304.218 304.222 307.841 309.617 312.486 314.261L322.385 304.362ZM314.535 292.694C312.674 288.24 311.716 283.404 311.716 278.114H297.716C297.716 285.143 298.999 291.826 301.617 298.092L314.535 292.694ZM311.716 278.114C311.716 272.824 312.674 268.042 314.52 263.689L301.632 258.221C298.999 264.428 297.716 271.085 297.716 278.114H311.716ZM314.535 263.654C316.428 259.125 319.028 255.276 322.335 252.036L312.536 242.037C307.843 246.636 304.204 252.066 301.617 258.256L314.535 263.654ZM322.335 252.036C325.658 248.779 329.555 246.238 334.091 244.41L328.858 231.424C322.674 233.916 317.212 237.454 312.536 242.037L322.335 252.036ZM334.14 244.39C338.673 242.523 343.639 241.557 349.113 241.557V227.557C341.948 227.557 335.155 228.831 328.809 231.444L334.14 244.39ZM349.113 241.557C355.086 241.557 360.106 242.517 364.306 244.262L369.677 231.333C363.478 228.758 356.579 227.557 349.113 227.557V241.557ZM364.341 244.276C368.847 246.119 372.692 248.608 375.945 251.728L385.636 241.625C381.049 237.225 375.695 233.794 369.642 231.318L364.341 244.276ZM375.817 241.75L363.218 254.469L373.165 264.322L385.764 251.603L375.817 241.75ZM373.309 254.619C370.362 251.462 366.817 249.033 362.77 247.314L357.294 260.198C359.647 261.198 361.541 262.529 363.074 264.172L373.309 254.619ZM362.829 247.339C358.654 245.519 354.027 244.716 349.113 244.716V258.716C352.519 258.716 355.171 259.273 357.235 260.173L362.829 247.339ZM349.113 244.716C344.606 244.716 340.294 245.504 336.257 247.16L341.571 260.112C343.773 259.208 346.261 258.716 349.113 258.716V244.716ZM336.344 247.125C332.386 248.687 328.903 251.004 325.959 254.053L336.03 263.778C337.566 262.187 339.361 260.985 341.484 260.147L336.344 247.125ZM325.871 254.146C323.046 257.18 320.879 260.758 319.314 264.77L332.356 269.86C333.35 267.312 334.623 265.291 336.118 263.685L325.871 254.146ZM319.261 264.91C317.747 269.048 317.035 273.473 317.035 278.114H331.035C331.035 274.915 331.523 272.141 332.409 269.72L319.261 264.91ZM317.035 278.114C317.035 282.817 317.741 287.285 319.261 291.438L332.409 286.628C331.528 284.222 331.035 281.411 331.035 278.114H317.035ZM319.314 291.578C320.879 295.59 323.046 299.168 325.871 302.203L336.118 292.663C334.623 291.058 333.35 289.036 332.356 286.488L319.314 291.578ZM325.959 302.295C328.871 305.312 332.305 307.645 336.197 309.284L341.63 296.381C339.443 295.46 337.597 294.193 336.03 292.57L325.959 302.295ZM336.257 309.308C340.294 310.965 344.606 311.752 349.113 311.752V297.752C346.261 297.752 343.773 297.26 341.571 296.356L336.257 309.308ZM349.113 311.752C354.152 311.752 358.882 310.96 363.13 309.154L357.654 296.27C355.503 297.184 352.713 297.752 349.113 297.752V311.752ZM363.13 309.154C367.156 307.443 370.706 305.04 373.704 301.938L363.639 292.207C361.997 293.905 360.028 295.261 357.654 296.27L363.13 309.154ZM363.722 302.022L376.441 314.741L386.34 304.842L373.621 292.123L363.722 302.022ZM376.647 304.644C373.197 307.823 369.231 310.339 364.701 312.192L370.002 325.15C376.031 322.683 381.424 319.28 386.134 314.939L376.647 304.644ZM364.666 312.206C360.484 313.944 355.39 314.911 349.233 314.911V328.911C356.835 328.911 363.82 327.718 370.037 325.135L364.666 312.206ZM398.764 320.591V235.877H384.764V320.591H398.764ZM391.764 242.877H410.603V228.877H391.764V242.877ZM403.603 235.877V320.591H417.603V235.877H403.603ZM410.603 313.591H391.764V327.591H410.603V313.591ZM427.065 323.171L460.663 238.458L447.649 233.297L414.051 318.01L427.065 323.171ZM454.156 242.877H471.194V228.877H454.156V242.877ZM464.678 238.434L497.915 323.148L510.948 318.034L477.711 233.321L464.678 238.434ZM504.432 313.591H484.513V327.591H504.432V313.591ZM491.096 318.209L465.658 247.895L452.493 252.658L477.931 322.972L491.096 318.209ZM459.075 257.276H465.915V243.276H459.075V257.276ZM459.343 247.865L433.545 318.18L446.688 323.002L472.486 252.687L459.343 247.865ZM440.117 313.591H420.558V327.591H440.117V313.591ZM446.637 305.232V289.873H432.637V305.232H446.637ZM439.637 296.873H485.833V282.873H439.637V296.873ZM478.833 289.873V305.232H492.833V289.873H478.833ZM485.833 298.232H439.637V312.232H485.833V298.232ZM520.396 320.591V235.877H506.396V320.591H520.396ZM513.396 242.877H526.595V228.877H513.396V242.877ZM519.954 238.091L525.593 255.01L538.875 250.582L533.235 233.664L519.954 238.091ZM525.234 252.796V320.591H539.234V252.796H525.234ZM532.234 313.591H513.396V327.591H532.234V313.591ZM577.349 316.284L527.433 252.329L516.397 260.943L566.313 324.898L577.349 316.284ZM528.743 258.175L533.423 237.417L519.766 234.338L515.086 255.096L528.743 258.175ZM521.076 240.184L570.993 304.139L582.029 295.525L532.113 231.57L521.076 240.184ZM569.682 298.293L565.002 319.051L578.66 322.13L583.339 301.372L569.682 298.293ZM578.54 318.592L573.5 301.674L560.083 305.67L565.122 322.589L578.54 318.592ZM573.792 303.672V235.877H559.792V303.672H573.792ZM566.792 242.877H585.63V228.877H566.792V242.877ZM578.63 235.877V320.591H592.63V235.877H578.63ZM585.63 313.591H571.831V327.591H585.63V313.591ZM625.78 314.911C619.552 314.911 614.567 313.907 610.624 312.154L604.939 324.948C611.075 327.675 618.089 328.911 625.78 328.911V314.911ZM610.747 312.21C606.751 310.341 602.932 307.474 599.315 303.439L588.891 312.785C593.593 318.029 598.893 322.121 604.816 324.892L610.747 312.21ZM599.028 313.086L611.267 300.967L601.416 291.019L589.177 303.138L599.028 313.086ZM601.065 300.593C604.279 304.278 607.928 307.278 612.031 309.48L618.651 297.144C616.195 295.826 613.844 293.946 611.618 291.393L601.065 300.593ZM612.21 309.573C616.696 311.816 621.679 312.832 626.98 312.832V298.832C623.482 298.832 620.706 298.168 618.471 297.051L612.21 309.573ZM626.98 312.832C631.668 312.832 636.326 312.014 640.102 309.496L632.336 297.848C631.793 298.21 630.292 298.832 626.98 298.832V312.832ZM640.005 309.56C644.151 306.895 646.579 302.728 646.579 297.673H632.579C632.579 297.8 632.565 297.841 632.571 297.818C632.574 297.807 632.58 297.786 632.591 297.758C632.602 297.73 632.616 297.701 632.632 297.672C632.666 297.61 632.693 297.584 632.682 297.596C632.667 297.611 632.597 297.679 632.434 297.784L640.005 309.56ZM646.579 297.673C646.579 293.777 645.308 290.022 642.369 287.083L632.47 296.983C632.495 297.008 632.5 297.018 632.497 297.013C632.493 297.008 632.495 297.009 632.502 297.026C632.513 297.055 632.579 297.24 632.579 297.673H646.579ZM642.369 287.083C640.157 284.871 637.432 283.185 634.443 281.89L628.876 294.736C630.687 295.521 631.802 296.315 632.469 296.983L642.369 287.083ZM634.523 281.926C631.955 280.775 629.133 279.693 626.074 278.673L621.647 291.954C624.347 292.854 626.725 293.772 628.796 294.701L634.523 281.926ZM626.131 278.692C623.5 277.79 620.863 276.773 618.218 275.64L612.703 288.508C615.659 289.774 618.621 290.917 621.59 291.935L626.131 278.692ZM618.371 275.707C616.041 274.642 613.895 273.353 611.921 271.839L603.403 282.949C606.227 285.115 609.281 286.945 612.551 288.44L618.371 275.707ZM612.125 272.001C610.567 270.713 609.274 269.11 608.247 267.113L595.797 273.516C597.65 277.119 600.116 280.236 603.199 282.787L612.125 272.001ZM608.283 267.184C607.466 265.55 606.862 263.103 606.862 259.515H592.862C592.862 264.568 593.698 269.32 595.761 273.445L608.283 267.184ZM606.862 259.515C606.862 255.469 607.811 252.378 609.425 249.931L597.738 242.222C594.393 247.295 592.862 253.163 592.862 259.515H606.862ZM609.368 250.016C611.122 247.439 613.554 245.425 616.898 243.991L611.384 231.123C605.769 233.529 601.161 237.194 597.796 242.137L609.368 250.016ZM616.995 243.949C620.422 242.419 624.579 241.557 629.62 241.557V227.557C622.981 227.557 616.819 228.696 611.287 231.165L616.995 243.949ZM629.62 241.557C634.706 241.557 639.157 242.447 643.074 244.117L648.563 231.238C642.721 228.747 636.373 227.557 629.62 227.557V241.557ZM643.112 244.132C647.219 245.855 650.399 248.117 652.826 250.847L663.29 241.546C659.316 237.076 654.338 233.659 648.526 231.222L643.112 244.132ZM653.132 241.222L640.893 253.341L650.744 263.29L662.983 251.171L653.132 241.222ZM650.844 253.443C647.854 250.359 644.608 247.851 641.073 246.137L634.965 258.735C636.71 259.581 638.664 260.993 640.793 263.189L650.844 253.443ZM641.15 246.175C637.485 244.343 633.467 243.516 629.26 243.516V257.516C631.612 257.516 633.434 257.97 634.889 258.697L641.15 246.175ZM629.26 243.516C625.156 243.516 621.037 244.305 617.578 246.612L625.343 258.26C625.724 258.007 626.804 257.516 629.26 257.516V243.516ZM617.75 246.5C613.723 249.017 611.581 253.055 611.581 257.716H625.581C625.581 257.619 625.591 257.616 625.575 257.684C625.557 257.757 625.519 257.873 625.446 258.008C625.372 258.143 625.288 258.25 625.218 258.322C625.15 258.392 625.122 258.403 625.17 258.372L617.75 246.5ZM611.581 257.716C611.581 261.608 612.959 265.275 615.934 268.084L625.547 257.906C625.525 257.886 625.532 257.888 625.551 257.916C625.57 257.944 625.588 257.976 625.599 258.005C625.611 258.032 625.607 258.034 625.6 257.996C625.593 257.956 625.581 257.866 625.581 257.716H611.581ZM616.09 268.227C618.261 270.157 620.868 271.65 623.704 272.823L629.057 259.887C627.252 259.14 626.1 258.393 625.391 257.763L616.09 268.227ZM623.78 272.854C626.303 273.863 629.014 274.864 631.909 275.856L636.45 262.613C633.745 261.686 631.257 260.766 628.98 259.856L623.78 272.854ZM631.966 275.875C634.605 276.755 637.213 277.783 639.789 278.961L645.609 266.228C642.585 264.846 639.513 263.634 636.393 262.594L631.966 275.875ZM639.789 278.961C641.991 279.967 643.991 281.25 645.808 282.816L654.949 272.212C652.126 269.779 649.007 267.781 645.609 266.228L639.789 278.961ZM646.005 282.98C647.499 284.175 648.783 285.779 649.812 287.95L662.464 281.957C660.613 278.048 658.057 274.693 654.751 272.048L646.005 282.98ZM649.843 288.016C650.69 289.756 651.298 292.313 651.298 295.993H665.298C665.298 290.873 664.466 286.07 662.432 281.891L649.843 288.016ZM651.298 295.993C651.298 302.177 649.211 306.443 645.267 309.62L654.05 320.523C661.625 314.42 665.298 305.967 665.298 295.993H651.298ZM645.313 309.583C641.188 312.849 634.958 314.911 625.78 314.911V328.911C636.921 328.911 646.609 326.413 654.003 320.56L645.313 309.583ZM108.32 461.721L81.0822 377.007L67.7542 381.293L94.9921 466.006L108.32 461.721ZM74.4182 386.15H93.1368V372.15H74.4182V386.15ZM86.4426 381.196L106.361 446.351L119.749 442.259L99.8309 377.103L86.4426 381.196ZM113.055 437.305H105.736V451.305H113.055V437.305ZM112.444 446.306L131.882 381.151L118.466 377.149L99.028 442.304L112.444 446.306ZM125.174 386.15H139.933V372.15H125.174V386.15ZM133.225 381.151L152.664 446.306L166.08 442.304L146.641 377.149L133.225 381.151ZM159.372 437.305H152.172V451.305H159.372V437.305ZM158.87 446.34L178.668 381.185L165.273 377.115L145.475 442.27L158.87 446.34ZM171.971 386.15H190.569V372.15H171.971V386.15ZM183.905 377.007L156.667 461.721L169.995 466.006L197.233 381.293L183.905 377.007ZM163.331 456.864H148.573V470.864H163.331V456.864ZM155.277 461.851L135.718 396.696L122.31 400.721L141.868 465.876L155.277 461.851ZM129.014 405.708H135.974V391.708H129.014V405.708ZM129.269 396.696L109.711 461.851L123.119 465.876L142.678 400.721L129.269 396.696ZM116.415 456.864H101.656V470.864H116.415V456.864ZM191.536 466.444L225.134 381.731L212.12 376.569L178.522 461.283L191.536 466.444ZM218.627 386.15H235.665V372.15H218.627V386.15ZM229.149 381.707L262.386 466.42L275.419 461.307L242.182 376.593L229.149 381.707ZM268.903 456.864H248.984V470.864H268.903V456.864ZM255.567 461.482L230.129 391.167L216.964 395.93L242.402 466.245L255.567 461.482ZM223.546 400.549H230.386V386.549H223.546V400.549ZM223.814 391.138L198.016 461.452L211.159 466.275L236.957 395.96L223.814 391.138ZM204.588 456.864H185.029V470.864H204.588V456.864ZM211.108 448.505V433.146H197.108V448.505H211.108ZM204.108 440.146H250.304V426.146H204.108V440.146ZM243.304 433.146V448.505H257.304V433.146H243.304ZM250.304 441.505H204.108V455.505H250.304V441.505ZM284.867 463.864V379.15H270.867V463.864H284.867ZM277.867 386.15H291.065V372.15H277.867V386.15ZM284.425 381.364L290.064 398.282L303.346 393.855L297.706 376.936L284.425 381.364ZM289.705 396.069V463.864H303.705V396.069H289.705ZM296.705 456.864H277.867V470.864H296.705V456.864ZM341.82 459.557L291.904 395.601L280.868 404.215L330.784 468.17L341.82 459.557ZM293.215 401.448L297.894 380.689L284.237 377.611L279.557 398.369L293.215 401.448ZM285.547 383.457L335.464 447.412L346.5 438.798L296.584 374.843L285.547 383.457ZM334.153 441.566L329.473 462.324L343.131 465.403L347.81 444.645L334.153 441.566ZM343.011 461.865L337.971 444.946L324.554 448.943L329.593 465.862L343.011 461.865ZM338.262 446.945V379.15H324.262V446.945H338.262ZM331.262 386.15H350.101V372.15H331.262V386.15ZM343.101 379.15V463.864H357.101V379.15H343.101ZM350.101 456.864H336.302V470.864H350.101V456.864ZM394.212 463.864V380.35H380.212V463.864H394.212ZM387.212 387.35H406.051V373.35H387.212V387.35ZM399.051 380.35V463.864H413.051V380.35H399.051ZM406.051 456.864H387.212V470.864H406.051V456.864ZM367.694 395.589V379.15H353.694V395.589H367.694ZM360.694 386.15H432.569V372.15H360.694V386.15ZM425.569 379.15V395.589H439.569V379.15H425.569ZM432.569 388.589H360.694V402.589H432.569V388.589ZM450.088 463.864V379.15H436.088V463.864H450.088ZM443.088 386.15H461.927V372.15H443.088V386.15ZM454.927 379.15V463.864H468.927V379.15H454.927ZM461.927 456.864H443.088V470.864H461.927V456.864ZM464.487 463.864V447.545H450.487V463.864H464.487ZM457.487 454.545H503.924V440.545H457.487V454.545ZM496.924 447.545V463.864H510.924V447.545H496.924ZM503.924 456.864H457.487V470.864H503.924V456.864ZM464.487 428.466V412.747H450.487V428.466H464.487ZM457.487 419.747H499.724V405.747H457.487V419.747ZM492.724 412.747V428.466H506.724V412.747H492.724ZM499.724 421.466H457.487V435.466H499.724V421.466ZM464.487 395.349V379.15H450.487V395.349H464.487ZM457.487 386.15H503.324V372.15H457.487V386.15ZM496.324 379.15V395.349H510.324V379.15H496.324ZM503.324 388.349H457.487V402.349H503.324V388.349ZM536.63 463.864V447.305H522.63V463.864H536.63ZM529.63 454.305H550.628V440.305H529.63V454.305ZM550.628 454.305C556.669 454.305 562.295 453.12 567.301 450.513L560.834 438.097C558.16 439.489 554.827 440.305 550.628 440.305V454.305ZM567.401 450.46C572.474 447.712 576.415 443.703 579.13 438.587L566.763 432.025C565.318 434.748 563.34 436.738 560.733 438.15L567.401 450.46ZM579.13 438.587C581.847 433.467 583.066 427.654 583.066 421.387H569.066C569.066 425.838 568.206 429.305 566.763 432.025L579.13 438.587ZM583.066 421.387C583.066 415.084 581.792 409.248 578.928 404.156L566.726 411.02C568.181 413.607 569.066 416.97 569.066 421.387H583.066ZM578.982 404.254C576.255 399.22 572.315 395.28 567.281 392.553L560.613 404.864C563.259 406.297 565.239 408.276 566.672 410.922L578.982 404.254ZM567.336 392.583C562.357 389.829 556.706 388.589 550.628 388.589V402.589C554.79 402.589 558.018 403.428 560.559 404.834L567.336 392.583ZM550.628 388.589H529.03V402.589H550.628V388.589ZM536.03 395.589V379.15H522.03V395.589H536.03ZM529.03 386.15H550.868V372.15H529.03V386.15ZM550.868 386.15C556.499 386.15 561.509 387.063 565.975 388.796L571.039 375.744C564.786 373.317 558.036 372.15 550.868 372.15V386.15ZM566.091 388.84C570.666 390.522 574.547 392.939 577.818 396.079L587.514 385.979C582.785 381.44 577.227 378.018 570.922 375.7L566.091 388.84ZM577.922 396.177C581.245 399.239 583.784 402.875 585.561 407.153L598.49 401.783C595.947 395.662 592.246 390.338 587.41 385.882L577.922 396.177ZM585.612 407.274C587.422 411.411 588.385 416.12 588.385 421.507H602.385C602.385 414.414 601.108 407.765 598.438 401.662L585.612 407.274ZM588.385 421.507C588.385 426.798 587.427 431.526 585.596 435.776L598.454 441.315C601.103 435.166 602.385 428.534 602.385 421.507H588.385ZM585.561 435.86C583.771 440.17 581.251 443.82 577.992 446.884L587.58 457.085C592.32 452.63 595.96 447.32 598.49 441.231L585.561 435.86ZM577.992 446.884C574.695 449.982 570.768 452.431 566.127 454.205L571.127 467.282C577.365 464.897 582.877 461.506 587.58 457.085L577.992 446.884ZM566.095 454.218C561.619 455.955 556.648 456.864 551.108 456.864V470.864C558.208 470.864 564.916 469.693 571.159 467.27L566.095 454.218ZM551.108 456.864H529.63V470.864H551.108V456.864ZM523.911 463.864V379.15H509.911V463.864H523.911ZM516.911 386.15H535.75V372.15H516.911V386.15ZM528.749 379.15V463.864H542.75V379.15H528.749ZM535.75 456.864H516.911V470.864H535.75V456.864Z" fill="white" fill-opacity="0.5" mask="url(#path-3-outside-1_201_13)"/>
<path d="M258.399 81.1462H279.987L301.427 106.846V81.1462H305.833V132.545H288.578L262.878 98.3282V132.545H258.399V81.1462Z" fill="#171717"/>
<path d="M324.874 108.975L308.94 81.1462H337.723L348.297 102.146L358.577 81.1462H364.231L350.573 108.975V132.545H324.874V108.975Z" fill="#171717"/>
<path d="M399.324 127.773C402.996 127.773 405.908 126.279 408.062 123.293C410.216 120.307 411.611 116.685 412.247 112.426H416.8C416.115 117.713 414.377 122.217 411.587 125.937C410.02 127.993 408.233 129.535 406.226 130.563C404.268 131.542 402.09 132.178 399.691 132.472C397.342 132.766 394.258 132.912 390.44 132.912C385.055 132.912 380.674 132.398 377.296 131.37C373.967 130.294 371.104 128.556 368.705 126.157C364.006 121.458 361.656 114.996 361.656 106.772C361.656 98.1079 363.761 91.6708 367.971 87.4609C370.712 84.7197 373.772 82.9084 377.149 82.0273C380.527 81.1462 384.957 80.7056 390.44 80.7056C395.482 80.7056 399.569 81.0728 402.702 81.807C405.884 82.4924 408.478 83.9854 410.485 86.2861C412.15 88.1952 413.447 90.4959 414.377 93.1883C415.307 95.8806 415.845 98.5485 415.992 101.192H411.807C411.611 98.989 411.073 96.7372 410.191 94.4365C409.359 92.0869 408.038 90.0798 406.226 88.4155C404.415 86.7022 402.114 85.8455 399.324 85.8455C396.681 85.8455 394.551 86.9959 392.936 89.2966C391.516 91.1078 390.44 93.7757 389.705 97.3002C389.167 99.9925 388.898 103.15 388.898 106.772C388.898 112.5 389.583 117.126 390.954 120.65C392.716 125.398 395.506 127.773 399.324 127.773Z" fill="#171717"/>
<path d="M410.093 109.926H412.247H416.8H419.645L419.279 112.748C418.547 118.399 416.671 123.324 413.587 127.437L413.581 127.444L413.575 127.452C411.815 129.762 409.751 131.566 407.366 132.788L407.355 132.793L407.344 132.799C405.107 133.918 402.65 134.628 399.998 134.953C399.997 134.953 399.996 134.953 399.995 134.953L399.691 132.472C397.342 132.766 394.258 132.912 390.44 132.912C385.055 132.912 380.674 132.398 377.296 131.37L410.093 109.926ZM410.093 109.926L409.775 112.057C409.187 115.988 407.918 119.219 406.035 121.831C404.349 124.168 402.19 125.273 399.324 125.273C397.981 125.273 396.911 124.873 395.988 124.088C395.02 123.264 394.084 121.899 393.297 119.78L393.291 119.762L393.284 119.744C392.068 116.617 391.398 112.333 391.398 106.772C391.398 103.27 391.658 100.288 392.155 97.8005C392.85 94.4665 393.819 92.2228 394.904 90.8388L394.944 90.787L394.982 90.7332C396.164 89.0492 397.555 88.3455 399.324 88.3455C401.558 88.3455 403.218 89.0111 404.508 90.2317L404.522 90.2441L404.535 90.2563C406.041 91.6407 407.137 93.3008 407.835 95.2712L407.845 95.301L407.857 95.3306C408.665 97.4397 409.144 99.4653 409.317 101.413L409.519 103.692H411.807H415.992H418.635L418.488 101.053C418.328 98.162 417.74 95.2664 416.74 92.372C415.718 89.4136 414.27 86.8229 412.37 84.6433L412.369 84.6427C409.988 81.9136 406.913 80.161 403.251 79.3679L410.093 109.926ZM258.399 78.6462H255.899V81.1462V132.545V135.045H258.399H262.878H265.378V132.545V105.82L286.579 134.047L287.329 135.045H288.578H305.833H308.333V132.545V85.1176L322.374 109.64V132.545V135.045H324.874H350.573H353.073V132.545V109.556L366.475 82.2476L368.242 78.6462H364.231H358.577H357.017L356.331 80.047L348.265 96.5246L339.956 80.0219L339.264 78.6462H337.723H308.94H308.333H305.833H304.628H301.427H298.927V81.1462V99.9467L281.906 79.5447L281.157 78.6462H279.987H258.399Z" stroke="white" stroke-opacity="0.5" stroke-width="5"/>
</svg>
