<svg width="629" height="629" viewBox="0 0 629 629" fill="none" xmlns="http://www.w3.org/2000/svg">
<g clip-path="url(#clip0_201_13)">
<mask id="mask0_201_13" style="mask-type:alpha" maskUnits="userSpaceOnUse" x="-21" y="22" width="663" height="591">
<path fill-rule="evenodd" clip-rule="evenodd" d="M641.636 22H-21V201H270.144L169.9 27.3728L461.483 27.3728L361.239 201H641.636V22ZM641.636 461H-21V613H641.636V461Z" fill="#D9D9D9"/>
</mask>
<g mask="url(#mask0_201_13)">
<circle cx="315.691" cy="321.082" r="251.1" stroke="#171717" stroke-width="10"/>
</g>
<path d="M237.399 60.1463H258.987L280.427 85.8458V60.1463H284.833V111.545H267.578L241.878 77.3282V111.545H237.399V60.1463Z" fill="#171717"/>
<path d="M303.874 87.9752L287.94 60.1463H316.723L327.297 81.1465L337.577 60.1463H343.231L329.573 87.9752V111.545H303.874V87.9752Z" fill="#171717"/>
<path d="M378.324 106.773C381.996 106.773 384.908 105.28 387.062 102.294C389.216 99.3075 390.611 95.6851 391.247 91.4263H395.8C395.115 96.713 393.377 101.217 390.587 104.937C389.02 106.993 387.233 108.535 385.226 109.563C383.268 110.542 381.09 111.178 378.691 111.472C376.342 111.766 373.258 111.912 369.44 111.912C364.055 111.912 359.674 111.398 356.296 110.371C352.967 109.294 350.104 107.556 347.705 105.157C343.006 100.458 340.656 93.9962 340.656 85.7724C340.656 77.108 342.761 70.6708 346.971 66.461C349.712 63.7197 352.772 61.9085 356.149 61.0274C359.527 60.1463 363.957 59.7057 369.44 59.7057C374.482 59.7057 378.569 60.0728 381.702 60.8071C384.884 61.4924 387.478 62.9854 389.485 65.2862C391.15 67.1953 392.447 69.496 393.377 72.1883C394.307 74.8807 394.845 77.5485 394.992 80.1919H390.807C390.611 77.9891 390.073 75.7373 389.191 73.4366C388.359 71.0869 387.038 69.0799 385.226 67.4156C383.415 65.7022 381.114 64.8456 378.324 64.8456C375.681 64.8456 373.551 65.996 371.936 68.2967C370.516 70.1079 369.44 72.7757 368.705 76.3003C368.167 78.9926 367.898 82.15 367.898 85.7724C367.898 91.4997 368.583 96.1256 369.954 99.6501C371.716 104.398 374.506 106.773 378.324 106.773Z" fill="#171717"/>
<mask id="path-4-outside-1_201_13" maskUnits="userSpaceOnUse" x="7" y="225" width="623" height="210" fill="black">
<rect fill="white" x="7" y="225" width="623" height="210"/>
<path d="M8.34414 314L16.3841 228.441H33.3351L51.6261 282.912L80.3021 228.441H96.7841L88.6771 314H76.8181L83.3171 243.382L84.4561 243.516L53.5021 303.95H45.7301L25.6301 241.64L26.8361 241.774L20.1361 314H8.34414ZM140.658 315.675C131.278 315.675 124.153 312.816 119.285 307.099C114.461 301.382 112.54 293.163 113.523 282.443L118.749 228.441H130.541L125.315 282.443C124.645 289.902 125.851 295.307 128.933 298.657C132.015 301.962 136.28 303.615 141.73 303.615C147.224 303.615 151.824 301.962 155.532 298.657C159.239 295.307 161.45 289.902 162.165 282.443L167.391 228.441H179.183L174.024 282.443C173.354 289.59 171.567 295.642 168.664 300.6C165.76 305.558 161.919 309.31 157.14 311.856C152.36 314.402 146.866 315.675 140.658 315.675ZM218.578 315.675C213.352 315.675 208.639 314.648 204.441 312.593C200.242 310.538 196.981 307.456 194.659 303.347C192.381 299.193 191.443 294.012 191.845 287.803H203.503C203.145 291.421 203.659 294.414 205.044 296.781C206.428 299.104 208.394 300.823 210.94 301.94C213.486 303.057 216.344 303.615 219.516 303.615C222.821 303.615 225.769 303.079 228.36 302.007C230.95 300.935 233.027 299.483 234.591 297.652C236.154 295.821 237.047 293.721 237.271 291.354C237.583 288.138 236.958 285.57 235.395 283.649C233.831 281.728 231.285 280.076 227.757 278.691L213.888 272.527C207.992 270.026 203.57 267.122 200.622 263.817C197.718 260.467 196.535 255.777 197.071 249.747C197.785 242.958 200.733 237.441 205.915 233.198C211.096 228.955 217.997 226.833 226.618 226.833C234.881 226.833 241.09 228.955 245.244 233.198C249.398 237.441 251.475 243.248 251.475 250.618H239.817C239.593 246.955 238.32 244.074 235.998 241.975C233.675 239.831 230.191 238.759 225.546 238.759C220.99 238.759 217.327 239.853 214.558 242.042C211.833 244.186 210.292 246.888 209.935 250.149C209.711 252.874 210.314 255.062 211.744 256.715C213.218 258.368 215.607 259.842 218.913 261.137L234.658 267.837C240.062 270.07 244.149 273.041 246.919 276.748C249.733 280.455 250.872 285.19 250.336 290.952C249.889 295.821 248.348 300.109 245.713 303.816C243.122 307.523 239.526 310.427 234.926 312.526C230.325 314.625 224.876 315.675 218.578 315.675ZM267.969 314L276.009 228.441H287.801L279.761 314H267.969ZM330.238 315.675C323.449 315.675 317.732 313.844 313.086 310.181C308.486 306.518 305.158 301.337 303.103 294.637C301.093 287.892 300.535 279.964 301.428 270.852C302.322 261.293 304.51 253.253 307.994 246.732C311.478 240.166 315.878 235.208 321.193 231.858C326.509 228.508 332.338 226.833 338.68 226.833C347.256 226.833 353.845 229.2 358.445 233.935C363.046 238.625 365.838 244.722 366.82 252.226L353.822 254.906C352.929 249.993 351.053 246.062 348.194 243.114C345.38 240.121 341.829 238.625 337.541 238.625C333.834 238.625 330.305 239.831 326.955 242.243C323.65 244.655 320.836 248.251 318.513 253.03C316.235 257.809 314.761 263.75 314.091 270.852C313.466 277.418 313.689 283.18 314.761 288.138C315.878 293.051 317.799 296.893 320.523 299.662C323.293 302.387 326.911 303.749 331.377 303.749C336.961 303.749 341.494 302.119 344.978 298.858C348.462 295.553 350.472 291.265 351.008 285.994H363.604C363.068 292.247 361.326 297.585 358.378 302.007C355.43 306.429 351.544 309.824 346.72 312.191C341.941 314.514 336.447 315.675 330.238 315.675ZM378.414 314L386.454 228.441H398.246L390.206 314H378.414ZM404.772 314L439.21 228.441H453.816L471.37 314H458.908L454.754 293.833H425.207L417.234 314H404.772ZM429.16 283.783H452.811L444.838 244.119L429.16 283.783ZM485.582 314L493.622 228.441H506.888L538.981 296.781L536.636 296.58L543.202 228.441H554.994L546.954 314H534.559L501.461 244.454L503.94 244.655L497.441 314H485.582ZM595.714 315.675C590.488 315.675 585.776 314.648 581.577 312.593C577.379 310.538 574.118 307.456 571.795 303.347C569.517 299.193 568.579 294.012 568.981 287.803H580.639C580.282 291.421 580.796 294.414 582.18 296.781C583.565 299.104 585.53 300.823 588.076 301.94C590.622 303.057 593.481 303.615 596.652 303.615C599.958 303.615 602.906 303.079 605.496 302.007C608.087 300.935 610.164 299.483 611.727 297.652C613.291 295.821 614.184 293.721 614.407 291.354C614.72 288.138 614.095 285.57 612.531 283.649C610.968 281.728 608.422 280.076 604.893 278.691L591.024 272.527C585.128 270.026 580.706 267.122 577.758 263.817C574.855 260.467 573.671 255.777 574.207 249.747C574.922 242.958 577.87 237.441 583.051 233.198C588.233 228.955 595.134 226.833 603.754 226.833C612.018 226.833 618.226 228.955 622.38 233.198C626.534 237.441 628.611 243.248 628.611 250.618H616.953C616.73 246.955 615.457 244.074 613.134 241.975C610.812 239.831 607.328 238.759 602.682 238.759C598.126 238.759 594.464 239.853 591.694 242.042C588.97 244.186 587.429 246.888 587.071 250.149C586.848 252.874 587.451 255.062 588.88 256.715C590.354 258.368 592.744 259.842 596.049 261.137L611.794 267.837C617.199 270.07 621.286 273.041 624.055 276.748C626.869 280.455 628.008 285.19 627.472 290.952C627.026 295.821 625.485 300.109 622.849 303.816C620.259 307.523 616.663 310.427 612.062 312.526C607.462 314.625 602.012 315.675 595.714 315.675ZM86.5604 348.441H99.7594L111.082 416.513L134.599 355.677H142.572L154.9 416.781L181.298 348.441H194.497L159.59 434H147.128L136.408 382.477L115.638 434H103.31L86.5604 348.441ZM187.283 434L221.721 348.441H236.327L253.881 434H241.419L237.265 413.833H207.718L199.745 434H187.283ZM211.671 403.783H235.322L227.349 364.119L211.671 403.783ZM268.094 434L276.134 348.441H289.4L321.493 416.781L319.148 416.58L325.714 348.441H337.506L329.466 434H317.071L283.973 364.454L286.452 364.655L279.953 434H268.094ZM366.233 434L373.201 359.697H348.746L349.885 348.441H410.654L409.515 359.697H384.993L378.025 434H366.233ZM414.921 434L422.961 348.441H471.469L470.263 359.697H433.614L431.202 385.425H465.64L464.635 396.681H430.13L427.718 422.543H464.434L463.429 434H414.921ZM492.055 348.441H515.907C523.768 348.441 530.423 350.205 535.873 353.734C541.322 357.218 545.342 362.176 547.933 368.608C550.568 374.995 551.484 382.522 550.68 391.187C549.876 399.852 547.553 407.401 543.712 413.833C539.87 420.22 534.868 425.178 528.704 428.707C522.584 432.236 515.639 434 507.867 434H484.015L492.055 348.441ZM502.708 360.233L496.946 422.275H508.939C514.343 422.275 519.1 420.935 523.21 418.255C527.364 415.53 530.714 411.845 533.26 407.2C535.806 402.51 537.369 397.172 537.95 391.187C538.53 385.202 537.972 379.886 536.275 375.241C534.622 370.551 531.964 366.888 528.302 364.253C524.639 361.573 520.105 360.233 514.701 360.233H502.708Z"/>
</mask>
<path d="M8.34414 314L16.3841 228.441H33.3351L51.6261 282.912L80.3021 228.441H96.7841L88.6771 314H76.8181L83.3171 243.382L84.4561 243.516L53.5021 303.95H45.7301L25.6301 241.64L26.8361 241.774L20.1361 314H8.34414ZM140.658 315.675C131.278 315.675 124.153 312.816 119.285 307.099C114.461 301.382 112.54 293.163 113.523 282.443L118.749 228.441H130.541L125.315 282.443C124.645 289.902 125.851 295.307 128.933 298.657C132.015 301.962 136.28 303.615 141.73 303.615C147.224 303.615 151.824 301.962 155.532 298.657C159.239 295.307 161.45 289.902 162.165 282.443L167.391 228.441H179.183L174.024 282.443C173.354 289.59 171.567 295.642 168.664 300.6C165.76 305.558 161.919 309.31 157.14 311.856C152.36 314.402 146.866 315.675 140.658 315.675ZM218.578 315.675C213.352 315.675 208.639 314.648 204.441 312.593C200.242 310.538 196.981 307.456 194.659 303.347C192.381 299.193 191.443 294.012 191.845 287.803H203.503C203.145 291.421 203.659 294.414 205.044 296.781C206.428 299.104 208.394 300.823 210.94 301.94C213.486 303.057 216.344 303.615 219.516 303.615C222.821 303.615 225.769 303.079 228.36 302.007C230.95 300.935 233.027 299.483 234.591 297.652C236.154 295.821 237.047 293.721 237.271 291.354C237.583 288.138 236.958 285.57 235.395 283.649C233.831 281.728 231.285 280.076 227.757 278.691L213.888 272.527C207.992 270.026 203.57 267.122 200.622 263.817C197.718 260.467 196.535 255.777 197.071 249.747C197.785 242.958 200.733 237.441 205.915 233.198C211.096 228.955 217.997 226.833 226.618 226.833C234.881 226.833 241.09 228.955 245.244 233.198C249.398 237.441 251.475 243.248 251.475 250.618H239.817C239.593 246.955 238.32 244.074 235.998 241.975C233.675 239.831 230.191 238.759 225.546 238.759C220.99 238.759 217.327 239.853 214.558 242.042C211.833 244.186 210.292 246.888 209.935 250.149C209.711 252.874 210.314 255.062 211.744 256.715C213.218 258.368 215.607 259.842 218.913 261.137L234.658 267.837C240.062 270.07 244.149 273.041 246.919 276.748C249.733 280.455 250.872 285.19 250.336 290.952C249.889 295.821 248.348 300.109 245.713 303.816C243.122 307.523 239.526 310.427 234.926 312.526C230.325 314.625 224.876 315.675 218.578 315.675ZM267.969 314L276.009 228.441H287.801L279.761 314H267.969ZM330.238 315.675C323.449 315.675 317.732 313.844 313.086 310.181C308.486 306.518 305.158 301.337 303.103 294.637C301.093 287.892 300.535 279.964 301.428 270.852C302.322 261.293 304.51 253.253 307.994 246.732C311.478 240.166 315.878 235.208 321.193 231.858C326.509 228.508 332.338 226.833 338.68 226.833C347.256 226.833 353.845 229.2 358.445 233.935C363.046 238.625 365.838 244.722 366.82 252.226L353.822 254.906C352.929 249.993 351.053 246.062 348.194 243.114C345.38 240.121 341.829 238.625 337.541 238.625C333.834 238.625 330.305 239.831 326.955 242.243C323.65 244.655 320.836 248.251 318.513 253.03C316.235 257.809 314.761 263.75 314.091 270.852C313.466 277.418 313.689 283.18 314.761 288.138C315.878 293.051 317.799 296.893 320.523 299.662C323.293 302.387 326.911 303.749 331.377 303.749C336.961 303.749 341.494 302.119 344.978 298.858C348.462 295.553 350.472 291.265 351.008 285.994H363.604C363.068 292.247 361.326 297.585 358.378 302.007C355.43 306.429 351.544 309.824 346.72 312.191C341.941 314.514 336.447 315.675 330.238 315.675ZM378.414 314L386.454 228.441H398.246L390.206 314H378.414ZM404.772 314L439.21 228.441H453.816L471.37 314H458.908L454.754 293.833H425.207L417.234 314H404.772ZM429.16 283.783H452.811L444.838 244.119L429.16 283.783ZM485.582 314L493.622 228.441H506.888L538.981 296.781L536.636 296.58L543.202 228.441H554.994L546.954 314H534.559L501.461 244.454L503.94 244.655L497.441 314H485.582ZM595.714 315.675C590.488 315.675 585.776 314.648 581.577 312.593C577.379 310.538 574.118 307.456 571.795 303.347C569.517 299.193 568.579 294.012 568.981 287.803H580.639C580.282 291.421 580.796 294.414 582.18 296.781C583.565 299.104 585.53 300.823 588.076 301.94C590.622 303.057 593.481 303.615 596.652 303.615C599.958 303.615 602.906 303.079 605.496 302.007C608.087 300.935 610.164 299.483 611.727 297.652C613.291 295.821 614.184 293.721 614.407 291.354C614.72 288.138 614.095 285.57 612.531 283.649C610.968 281.728 608.422 280.076 604.893 278.691L591.024 272.527C585.128 270.026 580.706 267.122 577.758 263.817C574.855 260.467 573.671 255.777 574.207 249.747C574.922 242.958 577.87 237.441 583.051 233.198C588.233 228.955 595.134 226.833 603.754 226.833C612.018 226.833 618.226 228.955 622.38 233.198C626.534 237.441 628.611 243.248 628.611 250.618H616.953C616.73 246.955 615.457 244.074 613.134 241.975C610.812 239.831 607.328 238.759 602.682 238.759C598.126 238.759 594.464 239.853 591.694 242.042C588.97 244.186 587.429 246.888 587.071 250.149C586.848 252.874 587.451 255.062 588.88 256.715C590.354 258.368 592.744 259.842 596.049 261.137L611.794 267.837C617.199 270.07 621.286 273.041 624.055 276.748C626.869 280.455 628.008 285.19 627.472 290.952C627.026 295.821 625.485 300.109 622.849 303.816C620.259 307.523 616.663 310.427 612.062 312.526C607.462 314.625 602.012 315.675 595.714 315.675ZM86.5604 348.441H99.7594L111.082 416.513L134.599 355.677H142.572L154.9 416.781L181.298 348.441H194.497L159.59 434H147.128L136.408 382.477L115.638 434H103.31L86.5604 348.441ZM187.283 434L221.721 348.441H236.327L253.881 434H241.419L237.265 413.833H207.718L199.745 434H187.283ZM211.671 403.783H235.322L227.349 364.119L211.671 403.783ZM268.094 434L276.134 348.441H289.4L321.493 416.781L319.148 416.58L325.714 348.441H337.506L329.466 434H317.071L283.973 364.454L286.452 364.655L279.953 434H268.094ZM366.233 434L373.201 359.697H348.746L349.885 348.441H410.654L409.515 359.697H384.993L378.025 434H366.233ZM414.921 434L422.961 348.441H471.469L470.263 359.697H433.614L431.202 385.425H465.64L464.635 396.681H430.13L427.718 422.543H464.434L463.429 434H414.921ZM492.055 348.441H515.907C523.768 348.441 530.423 350.205 535.873 353.734C541.322 357.218 545.342 362.176 547.933 368.608C550.568 374.995 551.484 382.522 550.68 391.187C549.876 399.852 547.553 407.401 543.712 413.833C539.87 420.22 534.868 425.178 528.704 428.707C522.584 432.236 515.639 434 507.867 434H484.015L492.055 348.441ZM502.708 360.233L496.946 422.275H508.939C514.343 422.275 519.1 420.935 523.21 418.255C527.364 415.53 530.714 411.845 533.26 407.2C535.806 402.51 537.369 397.172 537.95 391.187C538.53 385.202 537.972 379.886 536.275 375.241C534.622 370.551 531.964 366.888 528.302 364.253C524.639 361.573 520.105 360.233 514.701 360.233H502.708Z" fill="black"/>
<path d="M8.34414 314L7.34853 313.906C7.32219 314.187 7.41519 314.465 7.6047 314.673C7.7942 314.881 8.06265 315 8.34414 315V314ZM16.3841 228.441V227.441C15.8681 227.441 15.4368 227.834 15.3885 228.347L16.3841 228.441ZM33.3351 228.441L34.2831 228.123C34.1464 227.715 33.7648 227.441 33.3351 227.441V228.441ZM51.6261 282.912L50.6782 283.23C50.8056 283.61 51.147 283.877 51.5459 283.909C51.9449 283.941 52.3246 283.732 52.511 283.378L51.6261 282.912ZM80.3021 228.441V227.441C79.9309 227.441 79.5902 227.647 79.4173 227.975L80.3021 228.441ZM96.7841 228.441L97.7797 228.535C97.8063 228.255 97.7134 227.976 97.5239 227.768C97.3343 227.56 97.0658 227.441 96.7841 227.441V228.441ZM88.6771 314V315C89.1929 315 89.624 314.608 89.6727 314.094L88.6771 314ZM76.8181 314L75.8224 313.908C75.7966 314.188 75.8899 314.466 76.0793 314.674C76.2688 314.882 76.537 315 76.8181 315V314ZM83.3171 243.382L83.434 242.389C83.1662 242.357 82.8971 242.435 82.6876 242.605C82.4781 242.775 82.3461 243.022 82.3214 243.29L83.3171 243.382ZM84.4561 243.516L85.3462 243.972C85.4955 243.68 85.4926 243.334 85.3384 243.045C85.1842 242.756 84.8983 242.561 84.573 242.523L84.4561 243.516ZM53.5021 303.95V304.95C53.8774 304.95 54.2211 304.74 54.3922 304.406L53.5021 303.95ZM45.7301 303.95L44.7784 304.257C44.9117 304.67 45.2961 304.95 45.7301 304.95V303.95ZM25.6301 241.64L25.7406 240.646C25.4033 240.609 25.0701 240.745 24.8555 241.008C24.6409 241.27 24.5743 241.624 24.6784 241.947L25.6301 241.64ZM26.8361 241.774L27.8319 241.866C27.8822 241.323 27.4884 240.84 26.9466 240.78L26.8361 241.774ZM20.1361 314V315C20.6526 315 21.0842 314.607 21.1319 314.092L20.1361 314ZM9.33976 314.094L17.3798 228.535L15.3885 228.347L7.34853 313.906L9.33976 314.094ZM16.3841 229.441H33.3351V227.441H16.3841V229.441ZM32.3872 228.759L50.6782 283.23L52.5741 282.594L34.2831 228.123L32.3872 228.759ZM52.511 283.378L81.187 228.907L79.4173 227.975L50.7413 282.446L52.511 283.378ZM80.3021 229.441H96.7841V227.441H80.3021V229.441ZM95.7886 228.347L87.6816 313.906L89.6727 314.094L97.7797 228.535L95.7886 228.347ZM88.6771 313H76.8181V315H88.6771V313ZM77.8139 314.092L84.3129 243.474L82.3214 243.29L75.8224 313.908L77.8139 314.092ZM83.2003 244.375L84.3393 244.509L84.573 242.523L83.434 242.389L83.2003 244.375ZM83.5661 243.06L52.6121 303.494L54.3922 304.406L85.3462 243.972L83.5661 243.06ZM53.5021 302.95H45.7301V304.95H53.5021V302.95ZM46.6819 303.643L26.5819 241.333L24.6784 241.947L44.7784 304.257L46.6819 303.643ZM25.5197 242.634L26.7257 242.768L26.9466 240.78L25.7406 240.646L25.5197 242.634ZM25.8404 241.682L19.1404 313.908L21.1319 314.092L27.8319 241.866L25.8404 241.682ZM20.1361 313H8.34414V315H20.1361V313ZM119.285 307.099L118.52 307.744L118.523 307.747L119.285 307.099ZM113.523 282.443L112.527 282.347L112.527 282.352L113.523 282.443ZM118.749 228.441V227.441C118.234 227.441 117.803 227.832 117.753 228.345L118.749 228.441ZM130.541 228.441L131.536 228.537C131.563 228.257 131.471 227.978 131.281 227.769C131.091 227.56 130.823 227.441 130.541 227.441V228.441ZM125.315 282.443L124.319 282.347L124.319 282.354L125.315 282.443ZM128.933 298.657L128.197 299.334L128.201 299.339L128.933 298.657ZM155.532 298.657L156.197 299.403L156.202 299.399L155.532 298.657ZM162.165 282.443L161.169 282.347L161.169 282.348L162.165 282.443ZM167.391 228.441V227.441C166.876 227.441 166.445 227.832 166.395 228.345L167.391 228.441ZM179.183 228.441L180.178 228.536C180.205 228.256 180.112 227.977 179.923 227.768C179.733 227.56 179.464 227.441 179.183 227.441V228.441ZM174.024 282.443L173.028 282.348L173.028 282.35L174.024 282.443ZM168.664 300.6L167.801 300.095L167.801 300.095L168.664 300.6ZM157.14 311.856L157.61 312.739L157.61 312.739L157.14 311.856ZM140.658 314.675C131.491 314.675 124.679 311.891 120.046 306.451L118.523 307.747C123.628 313.742 131.064 316.675 140.658 316.675V314.675ZM120.049 306.454C115.461 301.017 113.549 293.106 114.518 282.534L112.527 282.352C111.531 293.22 113.46 301.747 118.52 307.744L120.049 306.454ZM114.518 282.539L119.744 228.537L117.753 228.345L112.527 282.347L114.518 282.539ZM118.749 229.441H130.541V227.441H118.749V229.441ZM129.545 228.345L124.319 282.347L126.31 282.539L131.536 228.537L129.545 228.345ZM124.319 282.354C123.639 289.919 124.831 295.675 128.197 299.334L129.669 297.98C126.87 294.939 125.65 289.886 126.311 282.532L124.319 282.354ZM128.201 299.339C131.511 302.888 136.065 304.615 141.73 304.615V302.615C136.496 302.615 132.519 301.036 129.664 297.975L128.201 299.339ZM141.73 304.615C147.441 304.615 152.287 302.89 156.197 299.403L154.866 297.911C151.362 301.035 147.006 302.615 141.73 302.615V304.615ZM156.202 299.399C160.169 295.815 162.433 290.125 163.16 282.538L161.169 282.348C160.467 289.68 158.309 294.799 154.861 297.915L156.202 299.399ZM163.16 282.539L168.386 228.537L166.395 228.345L161.169 282.347L163.16 282.539ZM167.391 229.441H179.183V227.441H167.391V229.441ZM178.187 228.346L173.028 282.348L175.019 282.538L180.178 228.536L178.187 228.346ZM173.028 282.35C172.368 289.386 170.614 295.29 167.801 300.095L169.527 301.105C172.52 295.994 174.339 289.793 175.019 282.536L173.028 282.35ZM167.801 300.095C164.985 304.903 161.275 308.52 156.669 310.973L157.61 312.739C162.563 310.1 166.536 306.213 169.527 301.105L167.801 300.095ZM156.669 310.973C152.055 313.432 146.727 314.675 140.658 314.675V316.675C147.006 316.675 152.666 315.372 157.61 312.739L156.669 310.973ZM204.441 312.593L204.88 311.695L204.441 312.593ZM194.659 303.347L193.782 303.828L193.788 303.839L194.659 303.347ZM191.845 287.803V286.803C191.317 286.803 190.881 287.212 190.847 287.738L191.845 287.803ZM203.503 287.803L204.498 287.901C204.525 287.62 204.433 287.341 204.244 287.132C204.054 286.922 203.785 286.803 203.503 286.803V287.803ZM205.044 296.781L204.18 297.286L204.185 297.293L205.044 296.781ZM234.591 297.652L233.83 297.003L233.83 297.003L234.591 297.652ZM237.271 291.354L236.275 291.257L236.275 291.26L237.271 291.354ZM235.395 283.649L236.17 283.018L236.17 283.018L235.395 283.649ZM227.757 278.691L227.35 279.605C227.364 279.611 227.378 279.617 227.391 279.622L227.757 278.691ZM213.888 272.527L214.294 271.613C214.289 271.611 214.283 271.609 214.278 271.606L213.888 272.527ZM200.622 263.817L199.866 264.472C199.869 264.476 199.872 264.479 199.875 264.483L200.622 263.817ZM197.071 249.747L196.076 249.642C196.076 249.648 196.075 249.653 196.075 249.658L197.071 249.747ZM205.915 233.198L206.548 233.972L206.548 233.972L205.915 233.198ZM245.244 233.198L245.958 232.498L245.958 232.498L245.244 233.198ZM251.475 250.618V251.618C252.027 251.618 252.475 251.17 252.475 250.618H251.475ZM239.817 250.618L238.818 250.679C238.851 251.207 239.288 251.618 239.817 251.618V250.618ZM235.998 241.975L235.319 242.71L235.327 242.717L235.998 241.975ZM214.558 242.042L215.176 242.828L215.178 242.827L214.558 242.042ZM209.935 250.149L208.941 250.04C208.94 250.049 208.939 250.058 208.938 250.067L209.935 250.149ZM211.744 256.715L210.987 257.369C210.991 257.373 210.994 257.377 210.997 257.381L211.744 256.715ZM218.913 261.137L219.304 260.217C219.295 260.213 219.286 260.209 219.277 260.206L218.913 261.137ZM234.658 267.837L234.266 268.757L234.276 268.761L234.658 267.837ZM246.919 276.748L246.117 277.346L246.122 277.353L246.919 276.748ZM250.336 290.952L249.34 290.859L249.34 290.861L250.336 290.952ZM245.713 303.816L244.897 303.237L244.893 303.243L245.713 303.816ZM234.926 312.526L234.51 311.616L234.51 311.616L234.926 312.526ZM218.578 314.675C213.486 314.675 208.927 313.675 204.88 311.695L204.001 313.491C208.352 315.62 213.217 316.675 218.578 316.675V314.675ZM204.88 311.695C200.865 309.73 197.753 306.79 195.529 302.855L193.788 303.839C196.209 308.122 199.619 311.347 204.001 313.491L204.88 311.695ZM195.535 302.866C193.373 298.923 192.449 293.945 192.842 287.868L190.847 287.738C190.436 294.078 191.388 299.463 193.782 303.828L195.535 302.866ZM191.845 288.803H203.503V286.803H191.845V288.803ZM202.507 287.705C202.136 291.465 202.659 294.685 204.18 297.286L205.907 296.276C204.658 294.142 204.154 291.377 204.498 287.901L202.507 287.705ZM204.185 297.293C205.679 299.8 207.807 301.658 210.538 302.856L211.341 301.024C208.98 299.989 207.177 298.407 205.903 296.269L204.185 297.293ZM210.538 302.856C213.227 304.035 216.225 304.615 219.516 304.615V302.615C216.463 302.615 213.744 302.078 211.341 301.024L210.538 302.856ZM219.516 304.615C222.929 304.615 226.01 304.061 228.742 302.931L227.977 301.083C225.527 302.097 222.713 302.615 219.516 302.615V304.615ZM228.742 302.931C231.455 301.809 233.67 300.271 235.351 298.301L233.83 297.003C232.385 298.696 230.446 300.061 227.977 301.083L228.742 302.931ZM235.351 298.301C237.046 296.316 238.023 294.023 238.266 291.448L236.275 291.26C236.071 293.42 235.262 295.326 233.83 297.003L235.351 298.301ZM238.266 291.451C238.596 288.056 237.946 285.199 236.17 283.018L234.619 284.28C235.97 285.94 236.571 288.22 236.275 291.257L238.266 291.451ZM236.17 283.018C234.455 280.911 231.733 279.177 228.122 277.76L227.391 279.622C230.838 280.974 233.207 282.546 234.619 284.28L236.17 283.018ZM228.163 277.777L214.294 271.613L213.481 273.441L227.35 279.605L228.163 277.777ZM214.278 271.606C208.462 269.139 204.184 266.309 201.368 263.151L199.875 264.483C202.955 267.936 207.521 270.912 213.497 273.448L214.278 271.606ZM201.377 263.162C198.709 260.083 197.546 255.697 198.067 249.836L196.075 249.658C195.524 255.857 196.728 260.851 199.866 264.472L201.377 263.162ZM198.065 249.852C198.753 243.318 201.575 238.045 206.548 233.972L205.281 232.424C199.892 236.838 196.818 242.597 196.076 249.642L198.065 249.852ZM206.548 233.972C211.505 229.912 218.16 227.833 226.618 227.833V225.833C217.833 225.833 210.687 227.997 205.281 232.424L206.548 233.972ZM226.618 227.833C234.719 227.833 240.627 229.912 244.529 233.898L245.958 232.498C241.552 227.998 235.042 225.833 226.618 225.833V227.833ZM244.529 233.898C248.458 237.911 250.475 243.443 250.475 250.618H252.475C252.475 243.053 250.337 236.971 245.958 232.498L244.529 233.898ZM251.475 249.618H239.817V251.618H251.475V249.618ZM240.815 250.557C240.578 246.682 239.218 243.538 236.668 241.233L235.327 242.717C237.422 244.611 238.608 247.229 238.818 250.679L240.815 250.557ZM236.676 241.24C234.098 238.861 230.326 237.759 225.546 237.759V239.759C230.056 239.759 233.252 240.801 235.319 242.71L236.676 241.24ZM225.546 237.759C220.831 237.759 216.929 238.893 213.938 241.257L215.178 242.827C217.725 240.814 221.148 239.759 225.546 239.759V237.759ZM213.939 241.256C211.017 243.556 209.329 246.496 208.941 250.04L210.929 250.258C211.255 247.281 212.649 244.816 215.176 242.828L213.939 241.256ZM208.938 250.067C208.698 252.988 209.34 255.465 210.987 257.369L212.5 256.061C211.288 254.66 210.724 252.759 210.931 250.231L208.938 250.067ZM210.997 257.381C212.62 259.2 215.175 260.746 218.548 262.068L219.277 260.206C216.04 258.937 213.815 257.535 212.49 256.049L210.997 257.381ZM218.521 262.057L234.266 268.757L235.049 266.917L219.304 260.217L218.521 262.057ZM234.276 268.761C239.557 270.944 243.481 273.817 246.117 277.346L247.72 276.15C244.818 272.264 240.567 269.197 235.039 266.913L234.276 268.761ZM246.122 277.353C248.75 280.815 249.859 285.283 249.34 290.859L251.331 291.045C251.885 285.097 250.715 280.095 247.715 276.143L246.122 277.353ZM249.34 290.861C248.908 295.567 247.423 299.684 244.898 303.237L246.528 304.395C249.273 300.533 250.87 296.074 251.331 291.043L249.34 290.861ZM244.893 303.243C242.416 306.787 238.968 309.582 234.51 311.616L235.341 313.436C240.084 311.271 243.828 308.259 246.532 304.389L244.893 303.243ZM234.51 311.616C230.068 313.643 224.767 314.675 218.578 314.675V316.675C224.985 316.675 230.582 315.607 235.341 313.436L234.51 311.616ZM267.969 314L266.974 313.906C266.947 314.187 267.04 314.465 267.23 314.673C267.419 314.881 267.688 315 267.969 315V314ZM276.009 228.441V227.441C275.493 227.441 275.062 227.834 275.014 228.347L276.009 228.441ZM287.801 228.441L288.797 228.535C288.823 228.254 288.73 227.976 288.541 227.768C288.351 227.56 288.083 227.441 287.801 227.441V228.441ZM279.761 314V315C280.277 315 280.708 314.607 280.757 314.094L279.761 314ZM268.965 314.094L277.005 228.535L275.014 228.347L266.974 313.906L268.965 314.094ZM276.009 229.441H287.801V227.441H276.009V229.441ZM286.806 228.347L278.766 313.906L280.757 314.094L288.797 228.535L286.806 228.347ZM279.761 313H267.969V315H279.761V313ZM313.086 310.181L312.463 310.963L312.467 310.966L313.086 310.181ZM303.103 294.637L302.145 294.923L302.147 294.93L303.103 294.637ZM301.428 270.852L302.424 270.95L302.424 270.945L301.428 270.852ZM307.994 246.732L308.876 247.203L308.878 247.201L307.994 246.732ZM321.193 231.858L321.727 232.704L321.727 232.704L321.193 231.858ZM358.445 233.935L357.728 234.632L357.731 234.635L358.445 233.935ZM366.82 252.226L367.022 253.205C367.535 253.1 367.88 252.616 367.812 252.096L366.82 252.226ZM353.822 254.906L352.838 255.085C352.887 255.35 353.04 255.584 353.263 255.735C353.486 255.885 353.761 255.94 354.024 255.885L353.822 254.906ZM348.194 243.114L347.466 243.799C347.469 243.803 347.473 243.806 347.476 243.81L348.194 243.114ZM326.955 242.243L326.371 241.431L326.366 241.435L326.955 242.243ZM318.513 253.03L317.614 252.593L317.611 252.6L318.513 253.03ZM314.091 270.852L315.087 270.947L315.087 270.946L314.091 270.852ZM314.761 288.138L313.784 288.349L313.786 288.36L314.761 288.138ZM320.523 299.662L319.81 300.363C319.814 300.367 319.818 300.371 319.822 300.375L320.523 299.662ZM344.978 298.858L345.662 299.588L345.667 299.583L344.978 298.858ZM351.008 285.994V284.994C350.495 284.994 350.065 285.382 350.013 285.893L351.008 285.994ZM363.604 285.994L364.601 286.079C364.625 285.8 364.53 285.524 364.341 285.318C364.152 285.111 363.884 284.994 363.604 284.994V285.994ZM358.378 302.007L359.21 302.562L359.21 302.562L358.378 302.007ZM346.72 312.191L347.157 313.09L347.161 313.089L346.72 312.191ZM330.238 314.675C323.639 314.675 318.149 312.899 313.705 309.396L312.467 310.966C317.314 314.788 323.259 316.675 330.238 316.675V314.675ZM313.709 309.399C309.295 305.884 306.066 300.889 304.059 294.344L302.147 294.93C304.25 301.785 307.677 307.152 312.463 310.963L313.709 309.399ZM304.062 294.351C302.098 287.762 301.539 279.97 302.424 270.95L300.433 270.754C299.531 279.958 300.089 288.023 302.145 294.923L304.062 294.351ZM302.424 270.945C303.308 261.481 305.471 253.578 308.876 247.203L307.112 246.261C303.55 252.929 301.335 261.106 300.433 270.759L302.424 270.945ZM308.878 247.201C312.295 240.761 316.584 235.945 321.727 232.704L320.66 231.012C315.172 234.471 310.662 239.571 307.111 246.263L308.878 247.201ZM321.727 232.704C326.881 229.456 332.524 227.833 338.68 227.833V225.833C332.151 225.833 326.137 227.56 320.66 231.012L321.727 232.704ZM338.68 227.833C347.071 227.833 353.368 230.144 357.728 234.632L359.162 233.238C354.322 228.256 347.442 225.833 338.68 225.833V227.833ZM357.731 234.635C362.158 239.147 364.87 245.033 365.829 252.356L367.812 252.096C366.805 244.411 363.934 238.103 359.159 233.235L357.731 234.635ZM366.618 251.247L353.62 253.927L354.024 255.885L367.022 253.205L366.618 251.247ZM354.806 254.727C353.885 249.661 351.936 245.536 348.912 242.418L347.476 243.81C350.17 246.588 351.973 250.324 352.838 255.085L354.806 254.727ZM348.923 242.429C345.911 239.226 342.092 237.625 337.541 237.625V239.625C341.567 239.625 344.85 241.017 347.466 243.799L348.923 242.429ZM337.541 237.625C333.601 237.625 329.871 238.911 326.371 241.431L327.54 243.055C330.74 240.751 334.067 239.625 337.541 239.625V237.625ZM326.366 241.435C322.895 243.968 319.987 247.709 317.614 252.593L319.413 253.467C321.685 248.792 324.405 245.342 327.545 243.051L326.366 241.435ZM317.611 252.6C315.268 257.515 313.773 263.577 313.096 270.758L315.087 270.946C315.749 263.923 317.203 258.104 319.416 253.46L317.611 252.6ZM313.096 270.757C312.463 277.397 312.685 283.266 313.784 288.349L315.739 287.927C314.694 283.094 314.468 277.439 315.087 270.947L313.096 270.757ZM313.786 288.36C314.932 293.401 316.922 297.428 319.81 300.363L321.236 298.961C318.675 296.358 316.824 292.701 315.736 287.916L313.786 288.36ZM319.822 300.375C322.807 303.311 326.691 304.749 331.377 304.749V302.749C327.131 302.749 323.779 301.462 321.225 298.949L319.822 300.375ZM331.377 304.749C337.168 304.749 341.961 303.051 345.662 299.588L344.295 298.128C341.027 301.186 336.753 302.749 331.377 302.749V304.749ZM345.667 299.583C349.342 296.096 351.446 291.578 352.003 286.095L350.013 285.893C349.499 290.952 347.582 295.009 344.29 298.133L345.667 299.583ZM351.008 286.994H363.604V284.994H351.008V286.994ZM362.608 285.909C362.084 292.025 360.385 297.194 357.546 301.452L359.21 302.562C362.267 297.976 364.053 292.47 364.601 286.079L362.608 285.909ZM357.546 301.452C354.697 305.726 350.947 309.003 346.28 311.293L347.161 313.089C352.142 310.645 356.163 307.132 359.21 302.562L357.546 301.452ZM346.283 311.292C341.661 313.538 336.321 314.675 330.238 314.675V316.675C336.573 316.675 342.221 315.49 347.157 313.09L346.283 311.292ZM378.414 314L377.419 313.906C377.393 314.187 377.486 314.465 377.675 314.673C377.865 314.881 378.133 315 378.414 315V314ZM386.454 228.441V227.441C385.938 227.441 385.507 227.834 385.459 228.347L386.454 228.441ZM398.246 228.441L399.242 228.535C399.268 228.254 399.175 227.976 398.986 227.768C398.796 227.56 398.528 227.441 398.246 227.441V228.441ZM390.206 314V315C390.722 315 391.154 314.607 391.202 314.094L390.206 314ZM379.41 314.094L387.45 228.535L385.459 228.347L377.419 313.906L379.41 314.094ZM386.454 229.441H398.246V227.441H386.454V229.441ZM397.251 228.347L389.211 313.906L391.202 314.094L399.242 228.535L397.251 228.347ZM390.206 313H378.414V315H390.206V313ZM404.772 314L403.844 313.627C403.72 313.935 403.757 314.284 403.943 314.56C404.129 314.835 404.439 315 404.772 315V314ZM439.21 228.441V227.441C438.802 227.441 438.434 227.689 438.282 228.068L439.21 228.441ZM453.816 228.441L454.795 228.24C454.7 227.775 454.29 227.441 453.816 227.441V228.441ZM471.37 314V315C471.67 315 471.955 314.865 472.145 314.632C472.334 314.399 472.41 314.093 472.349 313.799L471.37 314ZM458.908 314L457.928 314.202C458.024 314.667 458.433 315 458.908 315V314ZM454.754 293.833L455.733 293.631C455.637 293.166 455.228 292.833 454.754 292.833V293.833ZM425.207 293.833V292.833C424.796 292.833 424.428 293.084 424.277 293.465L425.207 293.833ZM417.234 314V315C417.644 315 418.013 314.749 418.164 314.368L417.234 314ZM429.16 283.783L428.23 283.415C428.108 283.723 428.147 284.072 428.333 284.345C428.519 284.619 428.829 284.783 429.16 284.783V283.783ZM452.811 283.783V284.783C453.11 284.783 453.394 284.649 453.584 284.417C453.774 284.185 453.85 283.88 453.791 283.586L452.811 283.783ZM444.838 244.119L445.818 243.922C445.731 243.488 445.368 243.162 444.927 243.123C444.485 243.084 444.071 243.339 443.908 243.751L444.838 244.119ZM405.699 314.373L440.137 228.814L438.282 228.068L403.844 313.627L405.699 314.373ZM439.21 229.441H453.816V227.441H439.21V229.441ZM452.836 228.642L470.39 314.201L472.349 313.799L454.795 228.24L452.836 228.642ZM471.37 313H458.908V315H471.37V313ZM459.887 313.798L455.733 293.631L453.774 294.035L457.928 314.202L459.887 313.798ZM454.754 292.833H425.207V294.833H454.754V292.833ZM424.277 293.465L416.304 313.632L418.164 314.368L426.137 294.201L424.277 293.465ZM417.234 313H404.772V315H417.234V313ZM429.16 284.783H452.811V282.783H429.16V284.783ZM453.791 283.586L445.818 243.922L443.857 244.316L451.83 283.98L453.791 283.586ZM443.908 243.751L428.23 283.415L430.09 284.151L445.768 244.487L443.908 243.751ZM485.582 314L484.586 313.906C484.56 314.187 484.653 314.465 484.843 314.673C485.032 314.881 485.301 315 485.582 315V314ZM493.622 228.441V227.441C493.106 227.441 492.675 227.834 492.626 228.347L493.622 228.441ZM506.888 228.441L507.793 228.016C507.628 227.665 507.276 227.441 506.888 227.441V228.441ZM538.981 296.781L538.896 297.777C539.252 297.808 539.597 297.646 539.801 297.353C540.006 297.059 540.038 296.679 539.886 296.356L538.981 296.781ZM536.636 296.58L535.641 296.484C535.615 296.75 535.697 297.015 535.868 297.22C536.039 297.425 536.285 297.554 536.551 297.576L536.636 296.58ZM543.202 228.441V227.441C542.687 227.441 542.256 227.832 542.207 228.345L543.202 228.441ZM554.994 228.441L555.99 228.535C556.016 228.254 555.923 227.976 555.733 227.768C555.544 227.56 555.275 227.441 554.994 227.441V228.441ZM546.954 314V315C547.47 315 547.901 314.607 547.95 314.094L546.954 314ZM534.559 314L533.656 314.43C533.822 314.778 534.173 315 534.559 315V314ZM501.461 244.454L501.542 243.457C501.185 243.428 500.841 243.592 500.638 243.886C500.435 244.181 500.404 244.561 500.558 244.884L501.461 244.454ZM503.94 244.655L504.936 244.748C504.961 244.482 504.878 244.217 504.706 244.012C504.534 243.807 504.287 243.68 504.021 243.658L503.94 244.655ZM497.441 314V315C497.957 315 498.388 314.607 498.437 314.093L497.441 314ZM486.578 314.094L494.618 228.535L492.626 228.347L484.586 313.906L486.578 314.094ZM493.622 229.441H506.888V227.441H493.622V229.441ZM505.983 228.866L538.076 297.206L539.886 296.356L507.793 228.016L505.983 228.866ZM539.066 295.785L536.721 295.584L536.551 297.576L538.896 297.777L539.066 295.785ZM537.631 296.676L544.197 228.537L542.207 228.345L535.641 296.484L537.631 296.676ZM543.202 229.441H554.994V227.441H543.202V229.441ZM553.998 228.347L545.958 313.906L547.95 314.094L555.99 228.535L553.998 228.347ZM546.954 313H534.559V315H546.954V313ZM535.462 313.57L502.364 244.024L500.558 244.884L533.656 314.43L535.462 313.57ZM501.38 245.451L503.859 245.652L504.021 243.658L501.542 243.457L501.38 245.451ZM502.944 244.562L496.445 313.907L498.437 314.093L504.936 244.748L502.944 244.562ZM497.441 313H485.582V315H497.441V313ZM581.577 312.593L582.017 311.695L581.577 312.593ZM571.795 303.347L570.918 303.828L570.925 303.839L571.795 303.347ZM568.981 287.803V286.803C568.454 286.803 568.017 287.212 567.983 287.738L568.981 287.803ZM580.639 287.803L581.634 287.901C581.662 287.62 581.57 287.341 581.38 287.132C581.191 286.922 580.922 286.803 580.639 286.803V287.803ZM582.18 296.781L581.317 297.286L581.321 297.293L582.18 296.781ZM611.727 297.652L610.967 297.003L610.967 297.003L611.727 297.652ZM614.407 291.354L613.412 291.257L613.412 291.26L614.407 291.354ZM612.531 283.649L613.307 283.018L613.307 283.018L612.531 283.649ZM604.893 278.691L604.487 279.605C604.501 279.611 604.514 279.617 604.528 279.622L604.893 278.691ZM591.024 272.527L591.43 271.613C591.425 271.611 591.42 271.609 591.415 271.606L591.024 272.527ZM577.758 263.817L577.003 264.472C577.006 264.476 577.009 264.479 577.012 264.483L577.758 263.817ZM574.207 249.747L573.213 249.642C573.212 249.648 573.212 249.653 573.211 249.658L574.207 249.747ZM583.051 233.198L583.685 233.972L583.685 233.972L583.051 233.198ZM622.38 233.198L623.095 232.498L623.095 232.498L622.38 233.198ZM628.611 250.618V251.618C629.164 251.618 629.611 251.17 629.611 250.618H628.611ZM616.953 250.618L615.955 250.679C615.987 251.207 616.425 251.618 616.953 251.618V250.618ZM613.134 241.975L612.456 242.71L612.464 242.717L613.134 241.975ZM591.694 242.042L592.313 242.828L592.314 242.827L591.694 242.042ZM587.071 250.149L586.077 250.04C586.076 250.049 586.075 250.058 586.075 250.067L587.071 250.149ZM588.88 256.715L588.124 257.369C588.127 257.373 588.131 257.377 588.134 257.381L588.88 256.715ZM596.049 261.137L596.441 260.217C596.432 260.213 596.423 260.209 596.414 260.206L596.049 261.137ZM611.794 267.837L611.403 268.757L611.412 268.761L611.794 267.837ZM624.055 276.748L623.254 277.346L623.259 277.353L624.055 276.748ZM627.472 290.952L626.477 290.859L626.476 290.861L627.472 290.952ZM622.849 303.816L622.034 303.237L622.03 303.243L622.849 303.816ZM612.062 312.526L611.647 311.616L611.647 311.616L612.062 312.526ZM595.714 314.675C590.623 314.675 586.063 313.675 582.017 311.695L581.138 313.491C585.489 315.62 590.354 316.675 595.714 316.675V314.675ZM582.017 311.695C578.001 309.73 574.89 306.79 572.666 302.855L570.925 303.839C573.346 308.122 576.756 311.347 581.138 313.491L582.017 311.695ZM572.672 302.866C570.51 298.923 569.586 293.945 569.979 287.868L567.983 287.738C567.573 294.078 568.525 299.463 570.918 303.828L572.672 302.866ZM568.981 288.803H580.639V286.803H568.981V288.803ZM579.644 287.705C579.273 291.465 579.796 294.685 581.317 297.286L583.043 296.276C581.795 294.142 581.291 291.377 581.634 287.901L579.644 287.705ZM581.321 297.293C582.816 299.8 584.944 301.658 587.675 302.856L588.478 301.024C586.117 299.989 584.314 298.407 583.039 296.269L581.321 297.293ZM587.675 302.856C590.364 304.035 593.362 304.615 596.652 304.615V302.615C593.6 302.615 590.881 302.078 588.478 301.024L587.675 302.856ZM596.652 304.615C600.066 304.615 603.147 304.061 605.879 302.931L605.114 301.083C602.664 302.097 599.85 302.615 596.652 302.615V304.615ZM605.879 302.931C608.591 301.809 610.806 300.271 612.488 298.301L610.967 297.003C609.522 298.696 607.583 300.061 605.114 301.083L605.879 302.931ZM612.488 298.301C614.183 296.316 615.16 294.023 615.403 291.448L613.412 291.26C613.208 293.42 612.398 295.326 610.967 297.003L612.488 298.301ZM615.403 291.451C615.733 288.056 615.083 285.199 613.307 283.018L611.756 284.28C613.107 285.94 613.707 288.22 613.412 291.257L615.403 291.451ZM613.307 283.018C611.592 280.911 608.87 279.177 605.259 277.76L604.528 279.622C607.974 280.974 610.344 282.546 611.756 284.28L613.307 283.018ZM605.299 277.777L591.43 271.613L590.618 273.441L604.487 279.605L605.299 277.777ZM591.415 271.606C585.599 269.139 581.321 266.309 578.505 263.151L577.012 264.483C580.092 267.936 584.658 270.912 590.634 273.448L591.415 271.606ZM578.514 263.162C575.846 260.083 574.682 255.697 575.203 249.836L573.211 249.658C572.66 255.857 573.864 260.851 577.003 264.472L578.514 263.162ZM575.202 249.852C575.89 243.318 578.712 238.045 583.685 233.972L582.418 232.424C577.028 236.838 573.954 242.597 573.213 249.642L575.202 249.852ZM583.685 233.972C588.642 229.912 595.297 227.833 603.754 227.833V225.833C594.97 225.833 587.824 227.997 582.418 232.424L583.685 233.972ZM603.754 227.833C611.856 227.833 617.764 229.912 621.666 233.898L623.095 232.498C618.689 227.998 612.179 225.833 603.754 225.833V227.833ZM621.666 233.898C625.595 237.911 627.611 243.443 627.611 250.618H629.611C629.611 243.053 627.474 236.971 623.095 232.498L621.666 233.898ZM628.611 249.618H616.953V251.618H628.611V249.618ZM617.951 250.557C617.715 246.682 616.355 243.538 613.805 241.233L612.464 242.717C614.559 244.611 615.745 247.229 615.955 250.679L617.951 250.557ZM613.813 241.24C611.235 238.861 607.463 237.759 602.682 237.759V239.759C607.192 239.759 610.389 240.801 612.456 242.71L613.813 241.24ZM602.682 237.759C597.967 237.759 594.066 238.893 591.074 241.257L592.314 242.827C594.861 240.814 598.285 239.759 602.682 239.759V237.759ZM591.076 241.256C588.154 243.556 586.466 246.496 586.077 250.04L588.065 250.258C588.392 247.281 589.786 244.816 592.313 242.828L591.076 241.256ZM586.075 250.067C585.835 252.988 586.477 255.465 588.124 257.369L589.637 256.061C588.425 254.66 587.861 252.759 588.068 250.231L586.075 250.067ZM588.134 257.381C589.757 259.2 592.312 260.746 595.684 262.068L596.414 260.206C593.176 258.937 590.951 257.535 589.627 256.049L588.134 257.381ZM595.658 262.057L611.403 268.757L612.186 266.917L596.441 260.217L595.658 262.057ZM611.412 268.761C616.694 270.944 620.618 273.817 623.254 277.346L624.856 276.15C621.954 272.264 617.704 269.197 612.176 266.913L611.412 268.761ZM623.259 277.353C625.887 280.815 626.995 285.283 626.477 290.859L628.468 291.045C629.021 285.097 627.852 280.095 624.852 276.143L623.259 277.353ZM626.476 290.861C626.045 295.567 624.56 299.684 622.034 303.237L623.664 304.395C626.41 300.533 628.007 296.074 628.468 291.043L626.476 290.861ZM622.03 303.243C619.553 306.787 616.105 309.582 611.647 311.616L612.477 313.436C617.221 311.271 620.964 308.259 623.669 304.389L622.03 303.243ZM611.647 311.616C607.205 313.643 601.903 314.675 595.714 314.675V316.675C602.121 316.675 607.719 315.607 612.477 313.436L611.647 311.616ZM86.5604 348.441V347.441C86.2615 347.441 85.9783 347.575 85.7883 347.805C85.5984 348.036 85.5216 348.34 85.579 348.633L86.5604 348.441ZM99.7594 348.441L100.746 348.277C100.666 347.795 100.248 347.441 99.7594 347.441V348.441ZM111.082 416.513L110.096 416.677C110.17 417.122 110.532 417.462 110.981 417.508C111.429 417.554 111.853 417.294 112.015 416.874L111.082 416.513ZM134.599 355.677V354.677C134.186 354.677 133.816 354.931 133.667 355.316L134.599 355.677ZM142.572 355.677L143.553 355.479C143.458 355.013 143.048 354.677 142.572 354.677V355.677ZM154.9 416.781L153.92 416.979C154.008 417.414 154.373 417.74 154.816 417.777C155.259 417.815 155.673 417.556 155.833 417.141L154.9 416.781ZM181.298 348.441V347.441C180.885 347.441 180.514 347.695 180.366 348.081L181.298 348.441ZM194.497 348.441L195.423 348.819C195.549 348.51 195.513 348.16 195.327 347.883C195.142 347.607 194.83 347.441 194.497 347.441V348.441ZM159.59 434V435C159.997 435 160.363 434.754 160.516 434.378L159.59 434ZM147.128 434L146.149 434.204C146.246 434.668 146.655 435 147.128 435V434ZM136.408 382.477L137.387 382.273C137.298 381.842 136.936 381.52 136.497 381.481C136.058 381.442 135.646 381.694 135.481 382.103L136.408 382.477ZM115.638 434V435C116.046 435 116.413 434.752 116.566 434.374L115.638 434ZM103.31 434L102.329 434.192C102.421 434.661 102.832 435 103.31 435V434ZM86.5604 349.441H99.7594V347.441H86.5604V349.441ZM98.7729 348.605L110.096 416.677L112.069 416.349L100.746 348.277L98.7729 348.605ZM112.015 416.874L135.532 356.038L133.667 355.316L110.15 416.152L112.015 416.874ZM134.599 356.677H142.572V354.677H134.599V356.677ZM141.592 355.875L153.92 416.979L155.881 416.583L143.553 355.479L141.592 355.875ZM155.833 417.141L182.231 348.801L180.366 348.081L153.968 416.421L155.833 417.141ZM181.298 349.441H194.497V347.441H181.298V349.441ZM193.571 348.063L158.664 433.622L160.516 434.378L195.423 348.819L193.571 348.063ZM159.59 433H147.128V435H159.59V433ZM148.107 433.796L137.387 382.273L135.429 382.681L146.149 434.204L148.107 433.796ZM135.481 382.103L114.711 433.626L116.566 434.374L137.336 382.851L135.481 382.103ZM115.638 433H103.31V435H115.638V433ZM104.292 433.808L87.5417 348.249L85.579 348.633L102.329 434.192L104.292 433.808ZM187.283 434L186.356 433.627C186.232 433.935 186.269 434.284 186.455 434.56C186.641 434.835 186.951 435 187.283 435V434ZM221.721 348.441V347.441C221.313 347.441 220.946 347.689 220.794 348.068L221.721 348.441ZM236.327 348.441L237.307 348.24C237.212 347.775 236.802 347.441 236.327 347.441V348.441ZM253.881 434V435C254.182 435 254.466 434.865 254.656 434.632C254.846 434.399 254.921 434.093 254.861 433.799L253.881 434ZM241.419 434L240.44 434.202C240.536 434.667 240.945 435 241.419 435V434ZM237.265 413.833L238.245 413.631C238.149 413.166 237.74 412.833 237.265 412.833V413.833ZM207.718 413.833V412.833C207.308 412.833 206.939 413.084 206.788 413.465L207.718 413.833ZM199.745 434V435C200.156 435 200.524 434.749 200.675 434.368L199.745 434ZM211.671 403.783L210.741 403.415C210.62 403.723 210.658 404.072 210.844 404.345C211.031 404.619 211.34 404.783 211.671 404.783V403.783ZM235.322 403.783V404.783C235.622 404.783 235.906 404.649 236.096 404.417C236.286 404.185 236.362 403.88 236.303 403.586L235.322 403.783ZM227.349 364.119L228.33 363.922C228.242 363.488 227.88 363.162 227.438 363.123C226.997 363.084 226.582 363.339 226.419 363.751L227.349 364.119ZM188.211 434.373L222.649 348.814L220.794 348.068L186.356 433.627L188.211 434.373ZM221.721 349.441H236.327V347.441H221.721V349.441ZM235.348 348.642L252.902 434.201L254.861 433.799L237.307 348.24L235.348 348.642ZM253.881 433H241.419V435H253.881V433ZM242.399 433.798L238.245 413.631L236.286 414.035L240.44 434.202L242.399 433.798ZM237.265 412.833H207.718V414.833H237.265V412.833ZM206.788 413.465L198.815 433.632L200.675 434.368L208.648 414.201L206.788 413.465ZM199.745 433H187.283V435H199.745V433ZM211.671 404.783H235.322V402.783H211.671V404.783ZM236.303 403.586L228.33 363.922L226.369 364.316L234.342 403.98L236.303 403.586ZM226.419 363.751L210.741 403.415L212.601 404.151L228.279 364.487L226.419 363.751ZM268.094 434L267.098 433.906C267.072 434.187 267.165 434.465 267.354 434.673C267.544 434.881 267.812 435 268.094 435V434ZM276.134 348.441V347.441C275.618 347.441 275.186 347.834 275.138 348.347L276.134 348.441ZM289.4 348.441L290.305 348.016C290.14 347.665 289.787 347.441 289.4 347.441V348.441ZM321.493 416.781L321.407 417.777C321.763 417.808 322.109 417.646 322.313 417.353C322.518 417.059 322.55 416.679 322.398 416.356L321.493 416.781ZM319.148 416.58L318.152 416.484C318.127 416.75 318.208 417.015 318.379 417.22C318.55 417.425 318.796 417.554 319.062 417.576L319.148 416.58ZM325.714 348.441V347.441C325.199 347.441 324.768 347.832 324.718 348.345L325.714 348.441ZM337.506 348.441L338.501 348.535C338.528 348.254 338.435 347.976 338.245 347.768C338.056 347.56 337.787 347.441 337.506 347.441V348.441ZM329.466 434V435C329.982 435 330.413 434.607 330.461 434.094L329.466 434ZM317.071 434L316.168 434.43C316.334 434.778 316.685 435 317.071 435V434ZM283.973 364.454L284.054 363.457C283.697 363.428 283.352 363.592 283.15 363.886C282.947 364.181 282.916 364.561 283.07 364.884L283.973 364.454ZM286.452 364.655L287.447 364.748C287.472 364.482 287.39 364.217 287.218 364.012C287.046 363.807 286.799 363.68 286.533 363.658L286.452 364.655ZM279.953 434V435C280.469 435 280.9 434.607 280.948 434.093L279.953 434ZM269.089 434.094L277.129 348.535L275.138 348.347L267.098 433.906L269.089 434.094ZM276.134 349.441H289.4V347.441H276.134V349.441ZM288.495 348.866L320.588 417.206L322.398 416.356L290.305 348.016L288.495 348.866ZM321.578 415.785L319.233 415.584L319.062 417.576L321.407 417.777L321.578 415.785ZM320.143 416.676L326.709 348.537L324.718 348.345L318.152 416.484L320.143 416.676ZM325.714 349.441H337.506V347.441H325.714V349.441ZM336.51 348.347L328.47 433.906L330.461 434.094L338.501 348.535L336.51 348.347ZM329.466 433H317.071V435H329.466V433ZM317.974 433.57L284.876 364.024L283.07 364.884L316.168 434.43L317.974 433.57ZM283.892 365.451L286.371 365.652L286.533 363.658L284.054 363.457L283.892 365.451ZM285.456 364.562L278.957 433.907L280.948 434.093L287.447 364.748L285.456 364.562ZM279.953 433H268.094V435H279.953V433ZM366.233 434L365.237 433.907C365.211 434.187 365.304 434.465 365.494 434.673C365.683 434.881 365.952 435 366.233 435V434ZM373.201 359.697L374.197 359.79C374.223 359.51 374.13 359.232 373.94 359.024C373.751 358.816 373.482 358.697 373.201 358.697V359.697ZM348.746 359.697L347.751 359.596C347.723 359.878 347.815 360.158 348.004 360.368C348.194 360.577 348.463 360.697 348.746 360.697V359.697ZM349.885 348.441V347.441C349.372 347.441 348.942 347.83 348.89 348.34L349.885 348.441ZM410.654 348.441L411.649 348.542C411.677 348.26 411.585 347.98 411.396 347.77C411.206 347.561 410.937 347.441 410.654 347.441V348.441ZM409.515 359.697V360.697C410.028 360.697 410.458 360.308 410.51 359.798L409.515 359.697ZM384.993 359.697V358.697C384.477 358.697 384.046 359.09 383.997 359.604L384.993 359.697ZM378.025 434V435C378.541 435 378.972 434.607 379.021 434.093L378.025 434ZM367.229 434.093L374.197 359.79L372.205 359.604L365.237 433.907L367.229 434.093ZM373.201 358.697H348.746V360.697H373.201V358.697ZM349.741 359.798L350.88 348.542L348.89 348.34L347.751 359.596L349.741 359.798ZM349.885 349.441H410.654V347.441H349.885V349.441ZM409.659 348.34L408.52 359.596L410.51 359.798L411.649 348.542L409.659 348.34ZM409.515 358.697H384.993V360.697H409.515V358.697ZM383.997 359.604L377.029 433.907L379.021 434.093L385.989 359.79L383.997 359.604ZM378.025 433H366.233V435H378.025V433ZM414.921 434L413.925 433.906C413.899 434.187 413.992 434.465 414.182 434.673C414.371 434.881 414.64 435 414.921 435V434ZM422.961 348.441V347.441C422.445 347.441 422.014 347.834 421.965 348.347L422.961 348.441ZM471.469 348.441L472.463 348.548C472.494 348.265 472.403 347.984 472.213 347.773C472.023 347.562 471.753 347.441 471.469 347.441V348.441ZM470.263 359.697V360.697C470.774 360.697 471.203 360.312 471.257 359.804L470.263 359.697ZM433.614 359.697V358.697C433.098 358.697 432.667 359.09 432.618 359.604L433.614 359.697ZM431.202 385.425L430.206 385.332C430.18 385.612 430.273 385.89 430.463 386.098C430.652 386.306 430.921 386.425 431.202 386.425V385.425ZM465.64 385.425L466.636 385.514C466.661 385.234 466.567 384.957 466.378 384.75C466.189 384.543 465.921 384.425 465.64 384.425V385.425ZM464.635 396.681V397.681C465.153 397.681 465.585 397.286 465.631 396.77L464.635 396.681ZM430.13 396.681V395.681C429.614 395.681 429.182 396.074 429.134 396.588L430.13 396.681ZM427.718 422.543L426.722 422.45C426.696 422.73 426.789 423.008 426.979 423.216C427.168 423.424 427.437 423.543 427.718 423.543V422.543ZM464.434 422.543L465.43 422.63C465.455 422.351 465.361 422.074 465.171 421.867C464.982 421.661 464.714 421.543 464.434 421.543V422.543ZM463.429 434V435C463.947 435 464.38 434.604 464.425 434.087L463.429 434ZM415.917 434.094L423.957 348.535L421.965 348.347L413.925 433.906L415.917 434.094ZM422.961 349.441H471.469V347.441H422.961V349.441ZM470.475 348.334L469.269 359.59L471.257 359.804L472.463 348.548L470.475 348.334ZM470.263 358.697H433.614V360.697H470.263V358.697ZM432.618 359.604L430.206 385.332L432.198 385.518L434.61 359.79L432.618 359.604ZM431.202 386.425H465.64V384.425H431.202V386.425ZM464.644 385.336L463.639 396.592L465.631 396.77L466.636 385.514L464.644 385.336ZM464.635 395.681H430.13V397.681H464.635V395.681ZM429.134 396.588L426.722 422.45L428.714 422.636L431.126 396.774L429.134 396.588ZM427.718 423.543H464.434V421.543H427.718V423.543ZM463.438 422.456L462.433 433.913L464.425 434.087L465.43 422.63L463.438 422.456ZM463.429 433H414.921V435H463.429V433ZM492.055 348.441V347.441C491.539 347.441 491.107 347.834 491.059 348.347L492.055 348.441ZM535.873 353.734L535.329 354.573L535.334 354.577L535.873 353.734ZM547.933 368.608L547.005 368.982L547.008 368.989L547.933 368.608ZM550.68 391.187L549.684 391.095L550.68 391.187ZM543.712 413.833L544.569 414.348L544.57 414.346L543.712 413.833ZM528.704 428.707L528.207 427.839L528.204 427.841L528.704 428.707ZM484.015 434L483.019 433.906C482.993 434.187 483.086 434.465 483.275 434.673C483.465 434.881 483.733 435 484.015 435V434ZM502.708 360.233V359.233C502.191 359.233 501.76 359.626 501.712 360.141L502.708 360.233ZM496.946 422.275L495.95 422.183C495.924 422.463 496.017 422.741 496.207 422.949C496.396 423.157 496.665 423.275 496.946 423.275V422.275ZM523.21 418.255L523.756 419.093L523.758 419.091L523.21 418.255ZM533.26 407.2L534.137 407.681L534.139 407.677L533.26 407.2ZM537.95 391.187L536.955 391.09L536.955 391.09L537.95 391.187ZM536.275 375.241L535.332 375.573L535.336 375.584L536.275 375.241ZM528.302 364.253L527.711 365.06L527.718 365.065L528.302 364.253ZM492.055 349.441H515.907V347.441H492.055V349.441ZM515.907 349.441C523.616 349.441 530.073 351.17 535.329 354.573L536.416 352.895C530.774 349.241 523.92 347.441 515.907 347.441V349.441ZM535.334 354.577C540.595 357.94 544.486 362.728 547.005 368.982L548.86 368.234C546.198 361.624 542.049 356.496 536.411 352.891L535.334 354.577ZM547.008 368.989C549.568 375.193 550.477 382.55 549.684 391.095L551.676 391.279C552.491 382.494 551.568 374.798 548.857 368.227L547.008 368.989ZM549.684 391.095C548.892 399.635 546.607 407.036 542.853 413.32L544.57 414.346C548.5 407.766 550.86 400.069 551.676 391.279L549.684 391.095ZM542.855 413.318C539.097 419.566 534.215 424.4 528.207 427.839L529.201 429.575C535.52 425.957 540.644 420.875 544.569 414.348L542.855 413.318ZM528.204 427.841C522.252 431.273 515.482 433 507.867 433V435C515.796 435 522.917 433.198 529.203 429.573L528.204 427.841ZM507.867 433H484.015V435H507.867V433ZM485.01 434.094L493.05 348.535L491.059 348.347L483.019 433.906L485.01 434.094ZM501.712 360.141L495.95 422.183L497.942 422.367L503.704 360.325L501.712 360.141ZM496.946 423.275H508.939V421.275H496.946V423.275ZM508.939 423.275C514.517 423.275 519.468 421.889 523.756 419.093L522.664 417.417C518.733 419.981 514.17 421.275 508.939 421.275V423.275ZM523.758 419.091C528.058 416.271 531.517 412.46 534.137 407.681L532.383 406.719C529.91 411.231 526.669 414.79 522.661 417.419L523.758 419.091ZM534.139 407.677C536.756 402.855 538.353 397.385 538.945 391.284L536.955 391.09C536.385 396.959 534.855 402.165 532.381 406.723L534.139 407.677ZM538.945 391.284C539.537 385.181 538.973 379.711 537.214 374.898L535.336 375.584C536.972 380.062 537.524 385.222 536.955 391.09L538.945 391.284ZM537.218 374.909C535.505 370.046 532.731 366.208 528.886 363.441L527.718 365.065C531.198 367.569 533.74 371.056 535.332 375.573L537.218 374.909ZM528.892 363.446C525.028 360.618 520.276 359.233 514.701 359.233V361.233C519.935 361.233 524.251 362.528 527.711 365.06L528.892 363.446ZM514.701 359.233H502.708V361.233H514.701V359.233Z" fill="black" mask="url(#path-4-outside-1_201_13)"/>
</g>
<defs>
<clipPath id="clip0_201_13">
<rect width="629" height="629" fill="white"/>
</clipPath>
</defs>
</svg>
